<?xml version="1.0" encoding="UTF-8" standalone="no"?>
<!DOCTYPE svg PUBLIC "-//W3C//DTD SVG 1.1//EN"
 "http://www.w3.org/Graphics/SVG/1.1/DTD/svg11.dtd">
<!-- Generated by graphviz version 12.0.0 (20240704.0754)
 -->
<!-- Title: dependency&#45;cruiser output Pages: 1 -->
<svg width="858pt" height="1017pt"
 viewBox="0.00 0.00 857.72 1016.73" xmlns="http://www.w3.org/2000/svg" xmlns:xlink="http://www.w3.org/1999/xlink">
<g id="graph0" class="graph" transform="scale(1 1) rotate(0) translate(4 1012.73)">
<title>dependency&#45;cruiser output</title>
<polygon fill="white" stroke="none" points="-4,4 -4,-1012.73 853.72,-1012.73 853.72,4 -4,4"/>
<g id="clust1" class="cluster">
<title>cluster_src</title>
<path fill="#ffffff" stroke="black" stroke-width="2" d="M20,-15.73C20,-15.73 829.72,-15.73 829.72,-15.73 835.72,-15.73 841.72,-21.73 841.72,-27.73 841.72,-27.73 841.72,-988.73 841.72,-988.73 841.72,-994.73 835.72,-1000.73 829.72,-1000.73 829.72,-1000.73 20,-1000.73 20,-1000.73 14,-1000.73 8,-994.73 8,-988.73 8,-988.73 8,-27.73 8,-27.73 8,-21.73 14,-15.73 20,-15.73"/>
<text text-anchor="middle" x="424.86" y="-988.63" font-family="Helvetica,sans-Serif" font-weight="bold" font-size="9.00">src</text>
</g>
<g id="clust2" class="cluster">
<title>cluster_src/components</title>
<path fill="#ffffff" stroke="black" stroke-width="2" d="M298.55,-39.73C298.55,-39.73 807.46,-39.73 807.46,-39.73 813.46,-39.73 819.46,-45.73 819.46,-51.73 819.46,-51.73 819.46,-683.73 819.46,-683.73 819.46,-689.73 813.46,-695.73 807.46,-695.73 807.46,-695.73 298.55,-695.73 298.55,-695.73 292.55,-695.73 286.55,-689.73 286.55,-683.73 286.55,-683.73 286.55,-51.73 286.55,-51.73 286.55,-45.73 292.55,-39.73 298.55,-39.73"/>
<text text-anchor="middle" x="553.01" y="-683.63" font-family="Helvetica,sans-Serif" font-weight="bold" font-size="9.00">components</text>
</g>
<g id="clust3" class="cluster">
<title>cluster_src/components/UI</title>
<path fill="#ffffff" stroke="black" stroke-width="2" d="M324.32,-440.73C324.32,-440.73 407.84,-440.73 407.84,-440.73 413.84,-440.73 419.84,-446.73 419.84,-452.73 419.84,-452.73 419.84,-481.73 419.84,-481.73 419.84,-487.73 413.84,-493.73 407.84,-493.73 407.84,-493.73 324.32,-493.73 324.32,-493.73 318.32,-493.73 312.32,-487.73 312.32,-481.73 312.32,-481.73 312.32,-452.73 312.32,-452.73 312.32,-446.73 318.32,-440.73 324.32,-440.73"/>
<text text-anchor="middle" x="366.08" y="-481.63" font-family="Helvetica,sans-Serif" font-weight="bold" font-size="9.00">UI</text>
</g>
<g id="clust4" class="cluster">
<title>cluster_src/components/buttons</title>
<path fill="#ffffff" stroke="black" stroke-width="2" d="M467.36,-169.73C467.36,-169.73 528.39,-169.73 528.39,-169.73 534.39,-169.73 540.39,-175.73 540.39,-181.73 540.39,-181.73 540.39,-272.73 540.39,-272.73 540.39,-278.73 534.39,-284.73 528.39,-284.73 528.39,-284.73 467.36,-284.73 467.36,-284.73 461.36,-284.73 455.36,-278.73 455.36,-272.73 455.36,-272.73 455.36,-181.73 455.36,-181.73 455.36,-175.73 461.36,-169.73 467.36,-169.73"/>
<text text-anchor="middle" x="497.88" y="-272.63" font-family="Helvetica,sans-Serif" font-weight="bold" font-size="9.00">buttons</text>
</g>
<g id="clust5" class="cluster">
<title>cluster_src/components/categories</title>
<path fill="#ffffff" stroke="black" stroke-width="2" d="M318.81,-353.73C318.81,-353.73 677.18,-353.73 677.18,-353.73 683.18,-353.73 689.18,-359.73 689.18,-365.73 689.18,-365.73 689.18,-394.73 689.18,-394.73 689.18,-400.73 683.18,-406.73 677.18,-406.73 677.18,-406.73 318.81,-406.73 318.81,-406.73 312.81,-406.73 306.81,-400.73 306.81,-394.73 306.81,-394.73 306.81,-365.73 306.81,-365.73 306.81,-359.73 312.81,-353.73 318.81,-353.73"/>
<text text-anchor="middle" x="498" y="-394.63" font-family="Helvetica,sans-Serif" font-weight="bold" font-size="9.00">categories</text>
</g>
<g id="clust6" class="cluster">
<title>cluster_src/components/filters</title>
<path fill="#ffffff" stroke="black" stroke-width="2" d="M306.55,-47.73C306.55,-47.73 425.61,-47.73 425.61,-47.73 431.61,-47.73 437.61,-53.73 437.61,-59.73 437.61,-59.73 437.61,-88.73 437.61,-88.73 437.61,-94.73 431.61,-100.73 425.61,-100.73 425.61,-100.73 306.55,-100.73 306.55,-100.73 300.55,-100.73 294.55,-94.73 294.55,-88.73 294.55,-88.73 294.55,-59.73 294.55,-59.73 294.55,-53.73 300.55,-47.73 306.55,-47.73"/>
<text text-anchor="middle" x="366.08" y="-88.63" font-family="Helvetica,sans-Serif" font-weight="bold" font-size="9.00">filters</text>
</g>
<g id="clust7" class="cluster">
<title>cluster_src/components/layout</title>
<path fill="#ffffff" stroke="black" stroke-width="2" d="M318.8,-527.73C318.8,-527.73 523.38,-527.73 523.38,-527.73 529.38,-527.73 535.38,-533.73 535.38,-539.73 535.38,-539.73 535.38,-599.73 535.38,-599.73 535.38,-605.73 529.38,-611.73 523.38,-611.73 523.38,-611.73 318.8,-611.73 318.8,-611.73 312.8,-611.73 306.8,-605.73 306.8,-599.73 306.8,-599.73 306.8,-539.73 306.8,-539.73 306.8,-533.73 312.8,-527.73 318.8,-527.73"/>
<text text-anchor="middle" x="421.09" y="-599.63" font-family="Helvetica,sans-Serif" font-weight="bold" font-size="9.00">layout</text>
</g>
<g id="clust8" class="cluster">
<title>cluster_src/components/listings</title>
<path fill="#ffffff" stroke="black" stroke-width="2" d="M311.56,-108.73C311.56,-108.73 799.46,-108.73 799.46,-108.73 805.46,-108.73 811.46,-114.73 811.46,-120.73 811.46,-120.73 811.46,-149.73 811.46,-149.73 811.46,-155.73 805.46,-161.73 799.46,-161.73 799.46,-161.73 311.56,-161.73 311.56,-161.73 305.56,-161.73 299.56,-155.73 299.56,-149.73 299.56,-149.73 299.56,-120.73 299.56,-120.73 299.56,-114.73 305.56,-108.73 311.56,-108.73"/>
<text text-anchor="middle" x="555.51" y="-149.63" font-family="Helvetica,sans-Serif" font-weight="bold" font-size="9.00">listings</text>
</g>
<g id="clust9" class="cluster">
<title>cluster_src/components/towns</title>
<path fill="#ffffff" stroke="black" stroke-width="2" d="M335.07,-292.73C335.07,-292.73 533.64,-292.73 533.64,-292.73 539.64,-292.73 545.64,-298.73 545.64,-304.73 545.64,-304.73 545.64,-333.73 545.64,-333.73 545.64,-339.73 539.64,-345.73 533.64,-345.73 533.64,-345.73 335.07,-345.73 335.07,-345.73 329.07,-345.73 323.07,-339.73 323.07,-333.73 323.07,-333.73 323.07,-304.73 323.07,-304.73 323.07,-298.73 329.07,-292.73 335.07,-292.73"/>
<text text-anchor="middle" x="434.36" y="-333.63" font-family="Helvetica,sans-Serif" font-weight="bold" font-size="9.00">towns</text>
</g>
<g id="clust10" class="cluster">
<title>cluster_src/pages</title>
<path fill="#ffffff" stroke="black" stroke-width="2" d="M157,-216.73C157,-216.73 266.55,-216.73 266.55,-216.73 272.55,-216.73 278.55,-222.73 278.55,-228.73 278.55,-228.73 278.55,-536.73 278.55,-536.73 278.55,-542.73 272.55,-548.73 266.55,-548.73 266.55,-548.73 157,-548.73 157,-548.73 151,-548.73 145,-542.73 145,-536.73 145,-536.73 145,-228.73 145,-228.73 145,-222.73 151,-216.73 157,-216.73"/>
<text text-anchor="middle" x="211.78" y="-536.63" font-family="Helvetica,sans-Serif" font-weight="bold" font-size="9.00">pages</text>
</g>
<g id="clust11" class="cluster">
<title>cluster_src/styles</title>
<path fill="#ffffff" stroke="black" stroke-width="2" d="M709.18,-703.73C709.18,-703.73 821.72,-703.73 821.72,-703.73 827.72,-703.73 833.72,-709.73 833.72,-715.73 833.72,-715.73 833.72,-961.73 833.72,-961.73 833.72,-967.73 827.72,-973.73 821.72,-973.73 821.72,-973.73 709.18,-973.73 709.18,-973.73 703.18,-973.73 697.18,-967.73 697.18,-961.73 697.18,-961.73 697.18,-715.73 697.18,-715.73 697.18,-709.73 703.18,-703.73 709.18,-703.73"/>
<text text-anchor="middle" x="765.45" y="-961.63" font-family="Helvetica,sans-Serif" font-weight="bold" font-size="9.00">styles</text>
</g>
<!-- src/App.jsx -->
<g id="node1" class="node">
<title>src/App.jsx</title>
<g id="a_node1"><a xlink:href="src/App.jsx" xlink:title="App.jsx">
<path fill="#ffff77" stroke="black" d="M130.73,-413.13C130.73,-413.13 89.27,-413.13 89.27,-413.13 86.13,-413.13 83,-410 83,-406.86 83,-406.86 83,-400.6 83,-400.6 83,-397.46 86.13,-394.33 89.27,-394.33 89.27,-394.33 130.73,-394.33 130.73,-394.33 133.87,-394.33 137,-397.46 137,-400.6 137,-400.6 137,-406.86 137,-406.86 137,-410 133.87,-413.13 130.73,-413.13"/>
<text text-anchor="start" x="95.24" y="-401.03" font-family="Helvetica,sans-Serif" font-size="9.00">App.jsx</text>
</a>
</g>
</g>
<!-- src/components/layout/Header.jsx -->
<g id="node2" class="node">
<title>src/components/layout/Header.jsx</title>
<g id="a_node2"><a xlink:href="src/components/layout/Header.jsx" xlink:title="Header.jsx">
<path fill="#ffff77" stroke="black" d="M389.32,-554.13C389.32,-554.13 342.84,-554.13 342.84,-554.13 339.7,-554.13 336.57,-551 336.57,-547.86 336.57,-547.86 336.57,-541.6 336.57,-541.6 336.57,-538.46 339.7,-535.33 342.84,-535.33 342.84,-535.33 389.32,-535.33 389.32,-535.33 392.46,-535.33 395.59,-538.46 395.59,-541.6 395.59,-541.6 395.59,-547.86 395.59,-547.86 395.59,-551 392.46,-554.13 389.32,-554.13"/>
<text text-anchor="start" x="344.57" y="-542.03" font-family="Helvetica,sans-Serif" font-size="9.00">Header.jsx</text>
</a>
</g>
</g>
<!-- src/App.jsx&#45;&gt;src/components/layout/Header.jsx -->
<g id="edge1" class="edge">
<title>src/App.jsx&#45;&gt;src/components/layout/Header.jsx</title>
<path fill="none" stroke="#000000" stroke-width="2" stroke-opacity="0.200000" d="M111.7,-413.37C114.08,-443.4 123.04,-534.24 145,-551.73 172.19,-573.39 271.83,-560.74 327.25,-551.6"/>
<polygon fill="#000000" fill-opacity="0.200000" stroke="#000000" stroke-width="2" stroke-opacity="0.200000" points="327.52,-553.68 333.09,-550.61 326.82,-549.54 327.52,-553.68"/>
</g>
<!-- src/pages/PageAddListing.jsx -->
<g id="node3" class="node">
<title>src/pages/PageAddListing.jsx</title>
<g id="a_node3"><a xlink:href="src/pages/PageAddListing.jsx" xlink:title="PageAddListing.jsx">
<path fill="#ffff77" stroke="black" d="M251.78,-429.13C251.78,-429.13 171.77,-429.13 171.77,-429.13 168.64,-429.13 165.5,-426 165.5,-422.86 165.5,-422.86 165.5,-416.6 165.5,-416.6 165.5,-413.46 168.64,-410.33 171.77,-410.33 171.77,-410.33 251.78,-410.33 251.78,-410.33 254.92,-410.33 258.05,-413.46 258.05,-416.6 258.05,-416.6 258.05,-422.86 258.05,-422.86 258.05,-426 254.92,-429.13 251.78,-429.13"/>
<text text-anchor="start" x="173.5" y="-417.03" font-family="Helvetica,sans-Serif" font-size="9.00">PageAddListing.jsx</text>
</a>
</g>
</g>
<!-- src/App.jsx&#45;&gt;src/pages/PageAddListing.jsx -->
<g id="edge2" class="edge">
<title>src/App.jsx&#45;&gt;src/pages/PageAddListing.jsx</title>
<path fill="none" stroke="#000000" stroke-width="2" stroke-opacity="0.200000" d="M137.48,-407.98C143.48,-408.94 150.08,-410 156.77,-411.07"/>
<polygon fill="#000000" fill-opacity="0.200000" stroke="#000000" stroke-width="2" stroke-opacity="0.200000" points="156.02,-413.08 162.28,-411.95 156.69,-408.93 156.02,-413.08"/>
</g>
<!-- src/pages/PageError.jsx -->
<g id="node4" class="node">
<title>src/pages/PageError.jsx</title>
<g id="a_node4"><a xlink:href="src/pages/PageError.jsx" xlink:title="PageError.jsx">
<path fill="#ffff77" stroke="black" d="M240.77,-522.13C240.77,-522.13 182.78,-522.13 182.78,-522.13 179.65,-522.13 176.52,-519 176.52,-515.86 176.52,-515.86 176.52,-509.6 176.52,-509.6 176.52,-506.46 179.65,-503.33 182.78,-503.33 182.78,-503.33 240.77,-503.33 240.77,-503.33 243.9,-503.33 247.04,-506.46 247.04,-509.6 247.04,-509.6 247.04,-515.86 247.04,-515.86 247.04,-519 243.9,-522.13 240.77,-522.13"/>
<text text-anchor="start" x="184.52" y="-510.03" font-family="Helvetica,sans-Serif" font-size="9.00">PageError.jsx</text>
</a>
</g>
</g>
<!-- src/App.jsx&#45;&gt;src/pages/PageError.jsx -->
<g id="edge3" class="edge">
<title>src/App.jsx&#45;&gt;src/pages/PageError.jsx</title>
<path fill="none" stroke="#000000" stroke-width="2" stroke-opacity="0.200000" d="M111.64,-413.54C113.43,-432.56 120.14,-474.5 145,-496.73 151.37,-502.43 159.43,-506.18 167.71,-508.63"/>
<polygon fill="#000000" fill-opacity="0.200000" stroke="#000000" stroke-width="2" stroke-opacity="0.200000" points="167.08,-510.64 173.41,-510.02 168.08,-506.56 167.08,-510.64"/>
</g>
<!-- src/pages/PageHome.jsx -->
<g id="node5" class="node">
<title>src/pages/PageHome.jsx</title>
<g id="a_node5"><a xlink:href="src/pages/PageHome.jsx" xlink:title="PageHome.jsx">
<path fill="#ffff77" stroke="black" d="M242.77,-367.13C242.77,-367.13 180.78,-367.13 180.78,-367.13 177.65,-367.13 174.51,-364 174.51,-360.86 174.51,-360.86 174.51,-354.6 174.51,-354.6 174.51,-351.46 177.65,-348.33 180.78,-348.33 180.78,-348.33 242.77,-348.33 242.77,-348.33 245.91,-348.33 249.04,-351.46 249.04,-354.6 249.04,-354.6 249.04,-360.86 249.04,-360.86 249.04,-364 245.91,-367.13 242.77,-367.13"/>
<text text-anchor="start" x="182.51" y="-355.03" font-family="Helvetica,sans-Serif" font-size="9.00">PageHome.jsx</text>
</a>
</g>
</g>
<!-- src/App.jsx&#45;&gt;src/pages/PageHome.jsx -->
<g id="edge4" class="edge">
<title>src/App.jsx&#45;&gt;src/pages/PageHome.jsx</title>
<path fill="none" stroke="#000000" stroke-width="2" stroke-opacity="0.200000" d="M119.6,-393.97C125.98,-387.32 135.23,-378.83 145,-373.73 151.44,-370.37 158.61,-367.7 165.77,-365.58"/>
<polygon fill="#000000" fill-opacity="0.200000" stroke="#000000" stroke-width="2" stroke-opacity="0.200000" points="165.96,-367.71 171.21,-364.13 164.87,-363.65 165.96,-367.71"/>
</g>
<!-- src/pages/PageListingsCategory.jsx -->
<g id="node6" class="node">
<title>src/pages/PageListingsCategory.jsx</title>
<g id="a_node6"><a xlink:href="src/pages/PageListingsCategory.jsx" xlink:title="PageListingsCategory.jsx">
<path fill="#ffff77" stroke="black" d="M264.29,-491.13C264.29,-491.13 159.27,-491.13 159.27,-491.13 156.13,-491.13 153,-488 153,-484.86 153,-484.86 153,-478.6 153,-478.6 153,-475.46 156.13,-472.33 159.27,-472.33 159.27,-472.33 264.29,-472.33 264.29,-472.33 267.42,-472.33 270.55,-475.46 270.55,-478.6 270.55,-478.6 270.55,-484.86 270.55,-484.86 270.55,-488 267.42,-491.13 264.29,-491.13"/>
<text text-anchor="start" x="161" y="-479.03" font-family="Helvetica,sans-Serif" font-size="9.00">PageListingsCategory.jsx</text>
</a>
</g>
</g>
<!-- src/App.jsx&#45;&gt;src/pages/PageListingsCategory.jsx -->
<g id="edge5" class="edge">
<title>src/App.jsx&#45;&gt;src/pages/PageListingsCategory.jsx</title>
<path fill="none" stroke="#000000" stroke-width="2" stroke-opacity="0.200000" d="M113.57,-413.33C117.78,-427.1 127.46,-452.29 145,-465.73 145.89,-466.41 146.81,-467.07 147.75,-467.7"/>
<polygon fill="#000000" fill-opacity="0.200000" stroke="#000000" stroke-width="2" stroke-opacity="0.200000" points="146.44,-469.37 152.69,-470.5 148.51,-465.71 146.44,-469.37"/>
</g>
<!-- src/pages/PageLogIn.jsx -->
<g id="node7" class="node">
<title>src/pages/PageLogIn.jsx</title>
<g id="a_node7"><a xlink:href="src/pages/PageLogIn.jsx" xlink:title="PageLogIn.jsx">
<path fill="#ffff77" stroke="black" d="M242.03,-305.13C242.03,-305.13 181.52,-305.13 181.52,-305.13 178.39,-305.13 175.26,-302 175.26,-298.86 175.26,-298.86 175.26,-292.6 175.26,-292.6 175.26,-289.46 178.39,-286.33 181.52,-286.33 181.52,-286.33 242.03,-286.33 242.03,-286.33 245.16,-286.33 248.3,-289.46 248.3,-292.6 248.3,-292.6 248.3,-298.86 248.3,-298.86 248.3,-302 245.16,-305.13 242.03,-305.13"/>
<text text-anchor="start" x="183.26" y="-293.03" font-family="Helvetica,sans-Serif" font-size="9.00">PageLogIn.jsx</text>
</a>
</g>
</g>
<!-- src/App.jsx&#45;&gt;src/pages/PageLogIn.jsx -->
<g id="edge6" class="edge">
<title>src/App.jsx&#45;&gt;src/pages/PageLogIn.jsx</title>
<path fill="none" stroke="#000000" stroke-width="2" stroke-opacity="0.200000" d="M111.68,-394.02C113.53,-375.21 120.33,-333.7 145,-311.73 151.06,-306.33 158.63,-302.69 166.46,-300.23"/>
<polygon fill="#000000" fill-opacity="0.200000" stroke="#000000" stroke-width="2" stroke-opacity="0.200000" points="166.79,-302.32 172.07,-298.78 165.74,-298.25 166.79,-302.32"/>
</g>
<!-- src/pages/PageRegister.jsx -->
<g id="node8" class="node">
<title>src/pages/PageRegister.jsx</title>
<g id="a_node8"><a xlink:href="src/pages/PageRegister.jsx" xlink:title="PageRegister.jsx">
<path fill="#ffff77" stroke="black" d="M247.53,-336.13C247.53,-336.13 176.03,-336.13 176.03,-336.13 172.89,-336.13 169.76,-333 169.76,-329.86 169.76,-329.86 169.76,-323.6 169.76,-323.6 169.76,-320.46 172.89,-317.33 176.03,-317.33 176.03,-317.33 247.53,-317.33 247.53,-317.33 250.66,-317.33 253.79,-320.46 253.79,-323.6 253.79,-323.6 253.79,-329.86 253.79,-329.86 253.79,-333 250.66,-336.13 247.53,-336.13"/>
<text text-anchor="start" x="177.76" y="-324.03" font-family="Helvetica,sans-Serif" font-size="9.00">PageRegister.jsx</text>
</a>
</g>
</g>
<!-- src/App.jsx&#45;&gt;src/pages/PageRegister.jsx -->
<g id="edge7" class="edge">
<title>src/App.jsx&#45;&gt;src/pages/PageRegister.jsx</title>
<path fill="none" stroke="#000000" stroke-width="2" stroke-opacity="0.200000" d="M113.76,-393.83C118.1,-380.19 127.83,-355.8 145,-342.73 149.78,-339.1 155.26,-336.28 160.99,-334.09"/>
<polygon fill="#000000" fill-opacity="0.200000" stroke="#000000" stroke-width="2" stroke-opacity="0.200000" points="161.56,-336.11 166.61,-332.25 160.26,-332.12 161.56,-336.11"/>
</g>
<!-- src/pages/PageSingleListing.jsx -->
<g id="node9" class="node">
<title>src/pages/PageSingleListing.jsx</title>
<g id="a_node9"><a xlink:href="src/pages/PageSingleListing.jsx" xlink:title="PageSingleListing.jsx">
<path fill="#ffff77" stroke="black" d="M256.29,-274.13C256.29,-274.13 167.27,-274.13 167.27,-274.13 164.13,-274.13 161,-271 161,-267.86 161,-267.86 161,-261.6 161,-261.6 161,-258.46 164.13,-255.33 167.27,-255.33 167.27,-255.33 256.29,-255.33 256.29,-255.33 259.42,-255.33 262.55,-258.46 262.55,-261.6 262.55,-261.6 262.55,-267.86 262.55,-267.86 262.55,-271 259.42,-274.13 256.29,-274.13"/>
<text text-anchor="start" x="169" y="-262.03" font-family="Helvetica,sans-Serif" font-size="9.00">PageSingleListing.jsx</text>
</a>
</g>
</g>
<!-- src/App.jsx&#45;&gt;src/pages/PageSingleListing.jsx -->
<g id="edge8" class="edge">
<title>src/App.jsx&#45;&gt;src/pages/PageSingleListing.jsx</title>
<path fill="none" stroke="#000000" stroke-width="2" stroke-opacity="0.200000" d="M110.62,-394.12C110.25,-371.04 112.71,-312.03 145,-280.73 147.38,-278.43 150.02,-276.44 152.86,-274.72"/>
<polygon fill="#000000" fill-opacity="0.200000" stroke="#000000" stroke-width="2" stroke-opacity="0.200000" points="153.6,-276.7 158.02,-272.13 151.72,-272.94 153.6,-276.7"/>
</g>
<!-- src/pages/PageTown.jsx -->
<g id="node10" class="node">
<title>src/pages/PageTown.jsx</title>
<g id="a_node10"><a xlink:href="src/pages/PageTown.jsx" xlink:title="PageTown.jsx">
<path fill="#ffff77" stroke="black" d="M241.77,-398.13C241.77,-398.13 181.78,-398.13 181.78,-398.13 178.65,-398.13 175.51,-395 175.51,-391.86 175.51,-391.86 175.51,-385.6 175.51,-385.6 175.51,-382.46 178.65,-379.33 181.78,-379.33 181.78,-379.33 241.77,-379.33 241.77,-379.33 244.91,-379.33 248.04,-382.46 248.04,-385.6 248.04,-385.6 248.04,-391.86 248.04,-391.86 248.04,-395 244.91,-398.13 241.77,-398.13"/>
<text text-anchor="start" x="183.51" y="-386.03" font-family="Helvetica,sans-Serif" font-size="9.00">PageTown.jsx</text>
</a>
</g>
</g>
<!-- src/App.jsx&#45;&gt;src/pages/PageTown.jsx -->
<g id="edge9" class="edge">
<title>src/App.jsx&#45;&gt;src/pages/PageTown.jsx</title>
<path fill="none" stroke="#000000" stroke-width="2" stroke-opacity="0.200000" d="M137.48,-399.75C146.32,-398.42 156.43,-396.9 166.25,-395.42"/>
<polygon fill="#000000" fill-opacity="0.200000" stroke="#000000" stroke-width="2" stroke-opacity="0.200000" points="166.54,-397.5 172.16,-394.54 165.92,-393.35 166.54,-397.5"/>
</g>
<!-- src/pages/PageTowns.jsx -->
<g id="node11" class="node">
<title>src/pages/PageTowns.jsx</title>
<g id="a_node11"><a xlink:href="src/pages/PageTowns.jsx" xlink:title="PageTowns.jsx">
<path fill="#ffff77" stroke="black" d="M244.02,-243.13C244.02,-243.13 179.53,-243.13 179.53,-243.13 176.4,-243.13 173.26,-240 173.26,-236.86 173.26,-236.86 173.26,-230.6 173.26,-230.6 173.26,-227.46 176.4,-224.33 179.53,-224.33 179.53,-224.33 244.02,-224.33 244.02,-224.33 247.16,-224.33 250.29,-227.46 250.29,-230.6 250.29,-230.6 250.29,-236.86 250.29,-236.86 250.29,-240 247.16,-243.13 244.02,-243.13"/>
<text text-anchor="start" x="181.26" y="-231.03" font-family="Helvetica,sans-Serif" font-size="9.00">PageTowns.jsx</text>
</a>
</g>
</g>
<!-- src/App.jsx&#45;&gt;src/pages/PageTowns.jsx -->
<g id="edge10" class="edge">
<title>src/App.jsx&#45;&gt;src/pages/PageTowns.jsx</title>
<path fill="none" stroke="#000000" stroke-width="2" stroke-opacity="0.200000" d="M111.83,-393.92C114.61,-363.34 124.6,-270.57 145,-249.73 150.32,-244.3 157.15,-240.59 164.39,-238.08"/>
<polygon fill="#000000" fill-opacity="0.200000" stroke="#000000" stroke-width="2" stroke-opacity="0.200000" points="164.89,-240.12 170.09,-236.47 163.75,-236.08 164.89,-240.12"/>
</g>
<!-- src/pages/PageUser.jsx -->
<g id="node12" class="node">
<title>src/pages/PageUser.jsx</title>
<g id="a_node12"><a xlink:href="src/pages/PageUser.jsx" xlink:title="PageUser.jsx">
<path fill="#ffff77" stroke="black" d="M240.27,-460.13C240.27,-460.13 183.28,-460.13 183.28,-460.13 180.15,-460.13 177.02,-457 177.02,-453.86 177.02,-453.86 177.02,-447.6 177.02,-447.6 177.02,-444.46 180.15,-441.33 183.28,-441.33 183.28,-441.33 240.27,-441.33 240.27,-441.33 243.4,-441.33 246.54,-444.46 246.54,-447.6 246.54,-447.6 246.54,-453.86 246.54,-453.86 246.54,-457 243.4,-460.13 240.27,-460.13"/>
<text text-anchor="start" x="185.02" y="-448.03" font-family="Helvetica,sans-Serif" font-size="9.00">PageUser.jsx</text>
</a>
</g>
</g>
<!-- src/App.jsx&#45;&gt;src/pages/PageUser.jsx -->
<g id="edge11" class="edge">
<title>src/App.jsx&#45;&gt;src/pages/PageUser.jsx</title>
<path fill="none" stroke="#000000" stroke-width="2" stroke-opacity="0.200000" d="M119.26,-413.53C125.62,-420.45 134.99,-429.4 145,-434.73 152.16,-438.54 160.24,-441.46 168.23,-443.69"/>
<polygon fill="#000000" fill-opacity="0.200000" stroke="#000000" stroke-width="2" stroke-opacity="0.200000" points="167.54,-445.68 173.87,-445.11 168.57,-441.61 167.54,-445.68"/>
</g>
<!-- src/components/buttons/AddBtn.jsx -->
<g id="node19" class="node">
<title>src/components/buttons/AddBtn.jsx</title>
<g id="a_node19"><a xlink:href="src/components/buttons/AddBtn.jsx" xlink:title="AddBtn.jsx">
<path fill="#ffff77" stroke="black" d="M521.12,-258.13C521.12,-258.13 474.63,-258.13 474.63,-258.13 471.5,-258.13 468.36,-255 468.36,-251.86 468.36,-251.86 468.36,-245.6 468.36,-245.6 468.36,-242.46 471.5,-239.33 474.63,-239.33 474.63,-239.33 521.12,-239.33 521.12,-239.33 524.25,-239.33 527.39,-242.46 527.39,-245.6 527.39,-245.6 527.39,-251.86 527.39,-251.86 527.39,-255 524.25,-258.13 521.12,-258.13"/>
<text text-anchor="start" x="476.36" y="-246.03" font-family="Helvetica,sans-Serif" font-size="9.00">AddBtn.jsx</text>
</a>
</g>
</g>
<!-- src/components/layout/Header.jsx&#45;&gt;src/components/buttons/AddBtn.jsx -->
<g id="edge20" class="edge">
<title>src/components/layout/Header.jsx&#45;&gt;src/components/buttons/AddBtn.jsx</title>
<path fill="none" stroke="#000000" stroke-width="2" stroke-opacity="0.200000" d="M395.96,-547.26C410.67,-546.85 427.53,-543.43 437.61,-531.73 455.16,-511.34 433.55,-313.78 445.61,-289.73 451.01,-278.96 460.69,-270.09 470.2,-263.39"/>
<polygon fill="#000000" fill-opacity="0.200000" stroke="#000000" stroke-width="2" stroke-opacity="0.200000" points="471.3,-265.18 475.17,-260.14 469,-261.67 471.3,-265.18"/>
</g>
<!-- src/styles/Header.css -->
<g id="node20" class="node">
<title>src/styles/Header.css</title>
<g id="a_node20"><a xlink:href="src/styles/Header.css" xlink:title="Header.css">
<path fill="#ffffcc" stroke="black" d="M789.94,-761.13C789.94,-761.13 740.96,-761.13 740.96,-761.13 737.82,-761.13 734.69,-758 734.69,-754.86 734.69,-754.86 734.69,-748.6 734.69,-748.6 734.69,-745.46 737.82,-742.33 740.96,-742.33 740.96,-742.33 789.94,-742.33 789.94,-742.33 793.08,-742.33 796.21,-745.46 796.21,-748.6 796.21,-748.6 796.21,-754.86 796.21,-754.86 796.21,-758 793.08,-761.13 789.94,-761.13"/>
<text text-anchor="start" x="742.69" y="-749.03" font-family="Helvetica,sans-Serif" font-size="9.00">Header.css</text>
</a>
</g>
</g>
<!-- src/components/layout/Header.jsx&#45;&gt;src/styles/Header.css -->
<g id="edge19" class="edge">
<title>src/components/layout/Header.jsx&#45;&gt;src/styles/Header.css</title>
<path fill="none" stroke="#000000" stroke-width="2" stroke-opacity="0.200000" d="M395.98,-548.79C409.05,-551.26 424.47,-555.05 437.61,-560.73 565.31,-615.95 569.76,-679.84 697.18,-735.73 706.1,-739.64 716.13,-742.68 725.66,-745.01"/>
<polygon fill="#000000" fill-opacity="0.200000" stroke="#000000" stroke-width="2" stroke-opacity="0.200000" points="724.96,-747.01 731.28,-746.28 725.89,-742.91 724.96,-747.01"/>
</g>
<!-- src/components/layout/TopBar.jsx -->
<g id="node29" class="node">
<title>src/components/layout/TopBar.jsx</title>
<g id="a_node29"><a xlink:href="src/components/layout/TopBar.jsx" xlink:title="TopBar.jsx">
<path fill="#ffff77" stroke="black" d="M521.12,-554.13C521.12,-554.13 474.64,-554.13 474.64,-554.13 471.5,-554.13 468.37,-551 468.37,-547.86 468.37,-547.86 468.37,-541.6 468.37,-541.6 468.37,-538.46 471.5,-535.33 474.64,-535.33 474.64,-535.33 521.12,-535.33 521.12,-535.33 524.25,-535.33 527.38,-538.46 527.38,-541.6 527.38,-541.6 527.38,-547.86 527.38,-547.86 527.38,-551 524.25,-554.13 521.12,-554.13"/>
<text text-anchor="start" x="476.37" y="-542.03" font-family="Helvetica,sans-Serif" font-size="9.00">TopBar.jsx</text>
</a>
</g>
</g>
<!-- src/components/layout/Header.jsx&#45;&gt;src/components/layout/TopBar.jsx -->
<g id="edge21" class="edge">
<title>src/components/layout/Header.jsx&#45;&gt;src/components/layout/TopBar.jsx</title>
<path fill="none" stroke="#000000" stroke-width="2" stroke-opacity="0.200000" d="M395.89,-544.73C414.54,-544.73 439.02,-544.73 459.21,-544.73"/>
<polygon fill="#000000" fill-opacity="0.200000" stroke="#000000" stroke-width="2" stroke-opacity="0.200000" points="459.12,-546.83 465.12,-544.73 459.12,-542.63 459.12,-546.83"/>
</g>
<!-- src/components/buttons/Submit.jsx -->
<g id="node22" class="node">
<title>src/components/buttons/Submit.jsx</title>
<g id="a_node22"><a xlink:href="src/components/buttons/Submit.jsx" xlink:title="Submit.jsx">
<path fill="#ffff77" stroke="black" d="M520.36,-227.13C520.36,-227.13 475.39,-227.13 475.39,-227.13 472.25,-227.13 469.12,-224 469.12,-220.86 469.12,-220.86 469.12,-214.6 469.12,-214.6 469.12,-211.46 472.25,-208.33 475.39,-208.33 475.39,-208.33 520.36,-208.33 520.36,-208.33 523.5,-208.33 526.63,-211.46 526.63,-214.6 526.63,-214.6 526.63,-220.86 526.63,-220.86 526.63,-224 523.5,-227.13 520.36,-227.13"/>
<text text-anchor="start" x="477.12" y="-215.03" font-family="Helvetica,sans-Serif" font-size="9.00">Submit.jsx</text>
</a>
</g>
</g>
<!-- src/pages/PageAddListing.jsx&#45;&gt;src/components/buttons/Submit.jsx -->
<g id="edge30" class="edge">
<title>src/pages/PageAddListing.jsx&#45;&gt;src/components/buttons/Submit.jsx</title>
<path fill="none" stroke="#000000" stroke-width="2" stroke-opacity="0.200000" d="M258.32,-416.82C266.14,-414.24 273.4,-410.14 278.55,-403.73 291.05,-388.18 272.29,-58.68 286.55,-44.73 310.55,-21.26 413.28,-21.61 437.61,-44.73 450.27,-56.76 434.9,-187.93 445.61,-201.73 449.37,-206.58 454.59,-210 460.26,-212.39"/>
<polygon fill="#000000" fill-opacity="0.200000" stroke="#000000" stroke-width="2" stroke-opacity="0.200000" points="459.56,-214.37 465.92,-214.27 460.89,-210.39 459.56,-214.37"/>
</g>
<!-- src/styles/Forms.css -->
<g id="node41" class="node">
<title>src/styles/Forms.css</title>
<g id="a_node41"><a xlink:href="src/styles/Forms.css" xlink:title="Forms.css">
<path fill="#ffffcc" stroke="black" d="M787.93,-885.13C787.93,-885.13 742.97,-885.13 742.97,-885.13 739.83,-885.13 736.7,-882 736.7,-878.86 736.7,-878.86 736.7,-872.6 736.7,-872.6 736.7,-869.46 739.83,-866.33 742.97,-866.33 742.97,-866.33 787.93,-866.33 787.93,-866.33 791.06,-866.33 794.2,-869.46 794.2,-872.6 794.2,-872.6 794.2,-878.86 794.2,-878.86 794.2,-882 791.06,-885.13 787.93,-885.13"/>
<text text-anchor="start" x="744.7" y="-873.03" font-family="Helvetica,sans-Serif" font-size="9.00">Forms.css</text>
</a>
</g>
</g>
<!-- src/pages/PageAddListing.jsx&#45;&gt;src/styles/Forms.css -->
<g id="edge31" class="edge">
<title>src/pages/PageAddListing.jsx&#45;&gt;src/styles/Forms.css</title>
<path fill="none" stroke="#000000" stroke-width="2" stroke-opacity="0.200000" d="M258.28,-422.68C266.11,-425.25 273.37,-429.34 278.55,-435.73 296.97,-458.44 272.14,-673.29 286.55,-698.73 381.64,-866.55 498.68,-830.46 689.18,-860.73 701.78,-862.73 715.49,-865.34 727.71,-867.81"/>
<polygon fill="#000000" fill-opacity="0.200000" stroke="#000000" stroke-width="2" stroke-opacity="0.200000" points="727.04,-869.82 733.34,-868.97 727.89,-865.7 727.04,-869.82"/>
</g>
<!-- src/components/Hero.jsx -->
<g id="node14" class="node">
<title>src/components/Hero.jsx</title>
<g id="a_node14"><a xlink:href="src/components/Hero.jsx" xlink:title="Hero.jsx">
<path fill="#ffff77" stroke="black" d="M386.81,-433.13C386.81,-433.13 345.35,-433.13 345.35,-433.13 342.21,-433.13 339.08,-430 339.08,-426.86 339.08,-426.86 339.08,-420.6 339.08,-420.6 339.08,-417.46 342.21,-414.33 345.35,-414.33 345.35,-414.33 386.81,-414.33 386.81,-414.33 389.95,-414.33 393.08,-417.46 393.08,-420.6 393.08,-420.6 393.08,-426.86 393.08,-426.86 393.08,-430 389.95,-433.13 386.81,-433.13"/>
<text text-anchor="start" x="349.58" y="-421.03" font-family="Helvetica,sans-Serif" font-size="9.00">Hero.jsx</text>
</a>
</g>
</g>
<!-- src/pages/PageHome.jsx&#45;&gt;src/components/Hero.jsx -->
<g id="edge34" class="edge">
<title>src/pages/PageHome.jsx&#45;&gt;src/components/Hero.jsx</title>
<path fill="none" stroke="#000000" stroke-width="2" stroke-opacity="0.200000" d="M249.51,-359.44C260.13,-361.68 270.9,-365.93 278.55,-373.73 290.03,-385.44 274.72,-398.39 286.55,-409.73 298,-420.71 314.92,-424.66 330.13,-425.69"/>
<polygon fill="#000000" fill-opacity="0.200000" stroke="#000000" stroke-width="2" stroke-opacity="0.200000" points="329.74,-427.77 335.8,-425.88 329.88,-423.58 329.74,-427.77"/>
</g>
<!-- src/components/categories/CategoryListFetch.jsx -->
<g id="node23" class="node">
<title>src/components/categories/CategoryListFetch.jsx</title>
<g id="a_node23"><a xlink:href="src/components/categories/CategoryListFetch.jsx" xlink:title="CategoryListFetch.jsx">
<path fill="#ffff77" stroke="black" d="M411.08,-380.13C411.08,-380.13 321.08,-380.13 321.08,-380.13 317.95,-380.13 314.81,-377 314.81,-373.86 314.81,-373.86 314.81,-367.6 314.81,-367.6 314.81,-364.46 317.95,-361.33 321.08,-361.33 321.08,-361.33 411.08,-361.33 411.08,-361.33 414.21,-361.33 417.35,-364.46 417.35,-367.6 417.35,-367.6 417.35,-373.86 417.35,-373.86 417.35,-377 414.21,-380.13 411.08,-380.13"/>
<text text-anchor="start" x="322.81" y="-368.03" font-family="Helvetica,sans-Serif" font-size="9.00">CategoryListFetch.jsx</text>
</a>
</g>
</g>
<!-- src/pages/PageHome.jsx&#45;&gt;src/components/categories/CategoryListFetch.jsx -->
<g id="edge32" class="edge">
<title>src/pages/PageHome.jsx&#45;&gt;src/components/categories/CategoryListFetch.jsx</title>
<path fill="none" stroke="#000000" stroke-width="2" stroke-opacity="0.200000" d="M249.26,-360.84C266.12,-362.28 286.59,-364.03 305.6,-365.65"/>
<polygon fill="#000000" fill-opacity="0.200000" stroke="#000000" stroke-width="2" stroke-opacity="0.200000" points="305.33,-367.74 311.49,-366.16 305.69,-363.55 305.33,-367.74"/>
</g>
<!-- src/components/filters/FiltersLayoutBasePages.jsx -->
<g id="node28" class="node">
<title>src/components/filters/FiltersLayoutBasePages.jsx</title>
<g id="a_node28"><a xlink:href="src/components/filters/FiltersLayoutBasePages.jsx" xlink:title="FiltersLayoutBasePages.jsx">
<path fill="#ffff77" stroke="black" d="M423.34,-74.13C423.34,-74.13 308.82,-74.13 308.82,-74.13 305.69,-74.13 302.55,-71 302.55,-67.86 302.55,-67.86 302.55,-61.6 302.55,-61.6 302.55,-58.46 305.69,-55.33 308.82,-55.33 308.82,-55.33 423.34,-55.33 423.34,-55.33 426.47,-55.33 429.61,-58.46 429.61,-61.6 429.61,-61.6 429.61,-67.86 429.61,-67.86 429.61,-71 426.47,-74.13 423.34,-74.13"/>
<text text-anchor="start" x="310.55" y="-62.03" font-family="Helvetica,sans-Serif" font-size="9.00">FiltersLayoutBasePages.jsx</text>
</a>
</g>
</g>
<!-- src/pages/PageHome.jsx&#45;&gt;src/components/filters/FiltersLayoutBasePages.jsx -->
<g id="edge33" class="edge">
<title>src/pages/PageHome.jsx&#45;&gt;src/components/filters/FiltersLayoutBasePages.jsx</title>
<path fill="none" stroke="#000000" stroke-width="2" stroke-opacity="0.200000" d="M249.4,-357.05C260.4,-354.92 271.43,-350.48 278.55,-341.73 295.11,-321.38 272.58,-127.94 286.55,-105.73 294.42,-93.23 307.44,-84.33 320.64,-78.1"/>
<polygon fill="#000000" fill-opacity="0.200000" stroke="#000000" stroke-width="2" stroke-opacity="0.200000" points="321.39,-80.07 326.06,-75.76 319.72,-76.21 321.39,-80.07"/>
</g>
<!-- src/components/layout/LayoutBasePages.jsx -->
<g id="node30" class="node">
<title>src/components/layout/LayoutBasePages.jsx</title>
<g id="a_node30"><a xlink:href="src/components/layout/LayoutBasePages.jsx" xlink:title="LayoutBasePages.jsx">
<path fill="#ffff77" stroke="black" d="M411.09,-585.13C411.09,-585.13 321.07,-585.13 321.07,-585.13 317.94,-585.13 314.8,-582 314.8,-578.86 314.8,-578.86 314.8,-572.6 314.8,-572.6 314.8,-569.46 317.94,-566.33 321.07,-566.33 321.07,-566.33 411.09,-566.33 411.09,-566.33 414.22,-566.33 417.36,-569.46 417.36,-572.6 417.36,-572.6 417.36,-578.86 417.36,-578.86 417.36,-582 414.22,-585.13 411.09,-585.13"/>
<text text-anchor="start" x="322.8" y="-573.03" font-family="Helvetica,sans-Serif" font-size="9.00">LayoutBasePages.jsx</text>
</a>
</g>
</g>
<!-- src/pages/PageHome.jsx&#45;&gt;src/components/layout/LayoutBasePages.jsx -->
<g id="edge35" class="edge">
<title>src/pages/PageHome.jsx&#45;&gt;src/components/layout/LayoutBasePages.jsx</title>
<path fill="none" stroke="#000000" stroke-width="2" stroke-opacity="0.200000" d="M249.35,-358.45C260.35,-360.58 271.39,-365.01 278.55,-373.73 291.68,-389.72 273.13,-544 286.55,-559.73 291.79,-565.87 298.69,-570.05 306.23,-572.84"/>
<polygon fill="#000000" fill-opacity="0.200000" stroke="#000000" stroke-width="2" stroke-opacity="0.200000" points="305.35,-574.77 311.7,-574.48 306.56,-570.75 305.35,-574.77"/>
</g>
<!-- src/components/listings/ListingsFetchWrapper.jsx -->
<g id="node33" class="node">
<title>src/components/listings/ListingsFetchWrapper.jsx</title>
<g id="a_node33"><a xlink:href="src/components/listings/ListingsFetchWrapper.jsx" xlink:title="ListingsFetchWrapper.jsx">
<path fill="#ffff77" stroke="black" d="M418.33,-135.13C418.33,-135.13 313.83,-135.13 313.83,-135.13 310.7,-135.13 307.56,-132 307.56,-128.86 307.56,-128.86 307.56,-122.6 307.56,-122.6 307.56,-119.46 310.7,-116.33 313.83,-116.33 313.83,-116.33 418.33,-116.33 418.33,-116.33 421.46,-116.33 424.6,-119.46 424.6,-122.6 424.6,-122.6 424.6,-128.86 424.6,-128.86 424.6,-132 421.46,-135.13 418.33,-135.13"/>
<text text-anchor="start" x="315.56" y="-123.03" font-family="Helvetica,sans-Serif" font-size="9.00">ListingsFetchWrapper.jsx</text>
</a>
</g>
</g>
<!-- src/pages/PageHome.jsx&#45;&gt;src/components/listings/ListingsFetchWrapper.jsx -->
<g id="edge36" class="edge">
<title>src/pages/PageHome.jsx&#45;&gt;src/components/listings/ListingsFetchWrapper.jsx</title>
<path fill="none" stroke="#000000" stroke-width="2" stroke-opacity="0.200000" d="M249.49,-356.4C260.23,-354.19 271.08,-349.87 278.55,-341.73 294.36,-324.5 279.65,-312.07 286.55,-289.73 303.94,-233.45 337.69,-172.09 354.72,-142.95"/>
<polygon fill="#000000" fill-opacity="0.200000" stroke="#000000" stroke-width="2" stroke-opacity="0.200000" points="356.46,-144.14 357.71,-137.91 352.85,-142.01 356.46,-144.14"/>
</g>
<!-- src/pages/PageListingsCategory.jsx&#45;&gt;src/components/Hero.jsx -->
<g id="edge38" class="edge">
<title>src/pages/PageListingsCategory.jsx&#45;&gt;src/components/Hero.jsx</title>
<path fill="none" stroke="#000000" stroke-width="2" stroke-opacity="0.200000" d="M270.42,-471.87C273.35,-470.12 276.1,-468.09 278.55,-465.73 287.88,-456.76 276.95,-446.4 286.55,-437.73 298.24,-427.18 315.03,-423.24 330.09,-422.12"/>
<polygon fill="#000000" fill-opacity="0.200000" stroke="#000000" stroke-width="2" stroke-opacity="0.200000" points="329.78,-424.23 335.68,-421.88 329.6,-420.04 329.78,-424.23"/>
</g>
<!-- src/pages/PageListingsCategory.jsx&#45;&gt;src/components/filters/FiltersLayoutBasePages.jsx -->
<g id="edge37" class="edge">
<title>src/pages/PageListingsCategory.jsx&#45;&gt;src/components/filters/FiltersLayoutBasePages.jsx</title>
<path fill="none" stroke="#000000" stroke-width="2" stroke-opacity="0.200000" d="M270.89,-472.76C273.75,-470.8 276.34,-468.48 278.55,-465.73 291.09,-450.14 276,-122.72 286.55,-105.73 294.35,-93.18 307.35,-84.28 320.56,-78.05"/>
<polygon fill="#000000" fill-opacity="0.200000" stroke="#000000" stroke-width="2" stroke-opacity="0.200000" points="321.3,-80.01 325.98,-75.71 319.64,-76.16 321.3,-80.01"/>
</g>
<!-- src/pages/PageListingsCategory.jsx&#45;&gt;src/components/layout/LayoutBasePages.jsx -->
<g id="edge39" class="edge">
<title>src/pages/PageListingsCategory.jsx&#45;&gt;src/components/layout/LayoutBasePages.jsx</title>
<path fill="none" stroke="#000000" stroke-width="2" stroke-opacity="0.200000" d="M270.85,-491.17C273.68,-493.02 276.28,-495.19 278.55,-497.73 297.09,-518.43 267.63,-539.38 286.55,-559.73 291.98,-565.57 298.91,-569.59 306.4,-572.33"/>
<polygon fill="#000000" fill-opacity="0.200000" stroke="#000000" stroke-width="2" stroke-opacity="0.200000" points="305.45,-574.23 311.8,-573.94 306.65,-570.21 305.45,-574.23"/>
</g>
<!-- src/pages/PageListingsCategory.jsx&#45;&gt;src/components/listings/ListingsFetchWrapper.jsx -->
<g id="edge40" class="edge">
<title>src/pages/PageListingsCategory.jsx&#45;&gt;src/components/listings/ListingsFetchWrapper.jsx</title>
<path fill="none" stroke="#000000" stroke-width="2" stroke-opacity="0.200000" d="M270.82,-472.7C273.69,-470.76 276.31,-468.45 278.55,-465.73 291,-450.62 281.79,-308.72 286.55,-289.73 300.89,-232.64 336,-171.71 354.02,-142.82"/>
<polygon fill="#000000" fill-opacity="0.200000" stroke="#000000" stroke-width="2" stroke-opacity="0.200000" points="355.57,-144.3 357,-138.11 352.02,-142.06 355.57,-144.3"/>
</g>
<!-- src/components/UI/AdImgCarousel.jsx -->
<g id="node17" class="node">
<title>src/components/UI/AdImgCarousel.jsx</title>
<g id="a_node17"><a xlink:href="src/components/UI/AdImgCarousel.jsx" xlink:title="AdImgCarousel.jsx">
<path fill="#ffff77" stroke="black" d="M405.58,-467.13C405.58,-467.13 326.58,-467.13 326.58,-467.13 323.45,-467.13 320.32,-464 320.32,-460.86 320.32,-460.86 320.32,-454.6 320.32,-454.6 320.32,-451.46 323.45,-448.33 326.58,-448.33 326.58,-448.33 405.58,-448.33 405.58,-448.33 408.71,-448.33 411.84,-451.46 411.84,-454.6 411.84,-454.6 411.84,-460.86 411.84,-460.86 411.84,-464 408.71,-467.13 405.58,-467.13"/>
<text text-anchor="start" x="328.32" y="-455.03" font-family="Helvetica,sans-Serif" font-size="9.00">AdImgCarousel.jsx</text>
</a>
</g>
</g>
<!-- src/pages/PageSingleListing.jsx&#45;&gt;src/components/UI/AdImgCarousel.jsx -->
<g id="edge42" class="edge">
<title>src/pages/PageSingleListing.jsx&#45;&gt;src/components/UI/AdImgCarousel.jsx</title>
<path fill="none" stroke="#000000" stroke-width="2" stroke-opacity="0.200000" d="M262.81,-269.48C268.86,-272.04 274.36,-275.66 278.55,-280.73 290.17,-294.8 274.42,-431.11 286.55,-444.73 293.03,-452 301.88,-456.25 311.32,-458.6"/>
<polygon fill="#000000" fill-opacity="0.200000" stroke="#000000" stroke-width="2" stroke-opacity="0.200000" points="310.84,-460.64 317.13,-459.69 311.62,-456.52 310.84,-460.64"/>
</g>
<!-- src/components/buttons/DeleteBtn.jsx -->
<g id="node21" class="node">
<title>src/components/buttons/DeleteBtn.jsx</title>
<g id="a_node21"><a xlink:href="src/components/buttons/DeleteBtn.jsx" xlink:title="DeleteBtn.jsx">
<path fill="#ffff77" stroke="black" d="M526.12,-196.13C526.12,-196.13 469.63,-196.13 469.63,-196.13 466.5,-196.13 463.36,-193 463.36,-189.86 463.36,-189.86 463.36,-183.6 463.36,-183.6 463.36,-180.46 466.5,-177.33 469.63,-177.33 469.63,-177.33 526.12,-177.33 526.12,-177.33 529.25,-177.33 532.39,-180.46 532.39,-183.6 532.39,-183.6 532.39,-189.86 532.39,-189.86 532.39,-193 529.25,-196.13 526.12,-196.13"/>
<text text-anchor="start" x="471.36" y="-184.03" font-family="Helvetica,sans-Serif" font-size="9.00">DeleteBtn.jsx</text>
</a>
</g>
</g>
<!-- src/pages/PageSingleListing.jsx&#45;&gt;src/components/buttons/DeleteBtn.jsx -->
<g id="edge41" class="edge">
<title>src/pages/PageSingleListing.jsx&#45;&gt;src/components/buttons/DeleteBtn.jsx</title>
<path fill="none" stroke="#000000" stroke-width="2" stroke-opacity="0.200000" d="M262.87,-260.03C268.9,-257.46 274.39,-253.83 278.55,-248.73 293.6,-230.3 269.42,-51.24 286.55,-34.73 334.9,11.85 388.7,11.26 437.61,-34.73 458.69,-54.56 428.94,-141.06 445.61,-164.73 448.22,-168.45 451.6,-171.54 455.38,-174.11"/>
<polygon fill="#000000" fill-opacity="0.200000" stroke="#000000" stroke-width="2" stroke-opacity="0.200000" points="454.14,-175.83 460.4,-176.96 456.21,-172.17 454.14,-175.83"/>
</g>
<!-- src/components/towns/TownsList.jsx -->
<g id="node37" class="node">
<title>src/components/towns/TownsList.jsx</title>
<g id="a_node37"><a xlink:href="src/components/towns/TownsList.jsx" xlink:title="TownsList.jsx">
<path fill="#ffff77" stroke="black" d="M394.82,-319.13C394.82,-319.13 337.34,-319.13 337.34,-319.13 334.21,-319.13 331.07,-316 331.07,-312.86 331.07,-312.86 331.07,-306.6 331.07,-306.6 331.07,-303.46 334.21,-300.33 337.34,-300.33 337.34,-300.33 394.82,-300.33 394.82,-300.33 397.95,-300.33 401.09,-303.46 401.09,-306.6 401.09,-306.6 401.09,-312.86 401.09,-312.86 401.09,-316 397.95,-319.13 394.82,-319.13"/>
<text text-anchor="start" x="339.07" y="-307.03" font-family="Helvetica,sans-Serif" font-size="9.00">TownsList.jsx</text>
</a>
</g>
</g>
<!-- src/pages/PageTowns.jsx&#45;&gt;src/components/towns/TownsList.jsx -->
<g id="edge43" class="edge">
<title>src/pages/PageTowns.jsx&#45;&gt;src/components/towns/TownsList.jsx</title>
<path fill="none" stroke="#000000" stroke-width="2" stroke-opacity="0.200000" d="M250.45,-240.38C259.86,-242.72 269.76,-245.78 278.55,-249.73 304.38,-261.34 330.62,-280.86 347.33,-294.47"/>
<polygon fill="#000000" fill-opacity="0.200000" stroke="#000000" stroke-width="2" stroke-opacity="0.200000" points="345.59,-295.76 351.55,-297.97 348.27,-292.53 345.59,-295.76"/>
</g>
<!-- src/components/Hero copy.jsx -->
<g id="node13" class="node">
<title>src/components/Hero copy.jsx</title>
<g id="a_node13"><a xlink:href="src/components/Hero copy.jsx" xlink:title="no&#45;orphans">
<path fill="#ccffcc" stroke="orange" d="M395.07,-520.13C395.07,-520.13 337.09,-520.13 337.09,-520.13 333.95,-520.13 330.82,-517 330.82,-513.86 330.82,-513.86 330.82,-507.6 330.82,-507.6 330.82,-504.46 333.95,-501.33 337.09,-501.33 337.09,-501.33 395.07,-501.33 395.07,-501.33 398.21,-501.33 401.34,-504.46 401.34,-507.6 401.34,-507.6 401.34,-513.86 401.34,-513.86 401.34,-517 398.21,-520.13 395.07,-520.13"/>
<text text-anchor="start" x="338.82" y="-508.03" font-family="Helvetica,sans-Serif" font-size="9.00" fill="orange">Hero copy.jsx</text>
</a>
</g>
</g>
<!-- src/styles/Hero.css -->
<g id="node15" class="node">
<title>src/styles/Hero.css</title>
<g id="a_node15"><a xlink:href="src/styles/Hero.css" xlink:title="Hero.css">
<path fill="#ffffcc" stroke="black" d="M786.18,-792.13C786.18,-792.13 744.72,-792.13 744.72,-792.13 741.58,-792.13 738.45,-789 738.45,-785.86 738.45,-785.86 738.45,-779.6 738.45,-779.6 738.45,-776.46 741.58,-773.33 744.72,-773.33 744.72,-773.33 786.18,-773.33 786.18,-773.33 789.32,-773.33 792.45,-776.46 792.45,-779.6 792.45,-779.6 792.45,-785.86 792.45,-785.86 792.45,-789 789.32,-792.13 786.18,-792.13"/>
<text text-anchor="start" x="747.7" y="-780.03" font-family="Helvetica,sans-Serif" font-size="9.00">Hero.css</text>
</a>
</g>
</g>
<!-- src/components/Hero.jsx&#45;&gt;src/styles/Hero.css -->
<g id="edge12" class="edge">
<title>src/components/Hero.jsx&#45;&gt;src/styles/Hero.css</title>
<path fill="none" stroke="#000000" stroke-width="2" stroke-opacity="0.200000" d="M393.48,-421.61C408.73,-421.95 426.95,-425.33 437.61,-437.73 450.44,-452.66 435.44,-597.87 445.61,-614.73 510.42,-722.24 592.17,-678.07 689.18,-757.73 693.32,-761.13 692.59,-763.98 697.18,-766.73 706.84,-772.51 718.45,-776.2 729.28,-778.56"/>
<polygon fill="#000000" fill-opacity="0.200000" stroke="#000000" stroke-width="2" stroke-opacity="0.200000" points="728.87,-780.62 735.16,-779.67 729.66,-776.49 728.87,-780.62"/>
</g>
<!-- src/components/Hero2.jsx -->
<g id="node16" class="node">
<title>src/components/Hero2.jsx</title>
<g id="a_node16"><a xlink:href="src/components/Hero2.jsx" xlink:title="no&#45;orphans">
<path fill="#ccffcc" stroke="orange" d="M386.82,-638.13C386.82,-638.13 345.34,-638.13 345.34,-638.13 342.21,-638.13 339.07,-635 339.07,-631.86 339.07,-631.86 339.07,-625.6 339.07,-625.6 339.07,-622.46 342.21,-619.33 345.34,-619.33 345.34,-619.33 386.82,-619.33 386.82,-619.33 389.95,-619.33 393.09,-622.46 393.09,-625.6 393.09,-625.6 393.09,-631.86 393.09,-631.86 393.09,-635 389.95,-638.13 386.82,-638.13"/>
<text text-anchor="start" x="347.07" y="-626.03" font-family="Helvetica,sans-Serif" font-size="9.00" fill="orange">Hero2.jsx</text>
</a>
</g>
</g>
<!-- src/styles/AdImgCarousel.css -->
<g id="node18" class="node">
<title>src/styles/AdImgCarousel.css</title>
<g id="a_node18"><a xlink:href="src/styles/AdImgCarousel.css" xlink:title="AdImgCarousel.css">
<path fill="#ffffcc" stroke="black" d="M806.2,-823.13C806.2,-823.13 724.7,-823.13 724.7,-823.13 721.57,-823.13 718.43,-820 718.43,-816.86 718.43,-816.86 718.43,-810.6 718.43,-810.6 718.43,-807.46 721.57,-804.33 724.7,-804.33 724.7,-804.33 806.2,-804.33 806.2,-804.33 809.33,-804.33 812.46,-807.46 812.46,-810.6 812.46,-810.6 812.46,-816.86 812.46,-816.86 812.46,-820 809.33,-823.13 806.2,-823.13"/>
<text text-anchor="start" x="726.43" y="-811.03" font-family="Helvetica,sans-Serif" font-size="9.00">AdImgCarousel.css</text>
</a>
</g>
</g>
<!-- src/components/UI/AdImgCarousel.jsx&#45;&gt;src/styles/AdImgCarousel.css -->
<g id="edge13" class="edge">
<title>src/components/UI/AdImgCarousel.jsx&#45;&gt;src/styles/AdImgCarousel.css</title>
<path fill="none" stroke="#000000" stroke-width="2" stroke-opacity="0.200000" d="M412.02,-457.02C421.77,-459.09 431.1,-463.19 437.61,-470.73 454.17,-489.93 430.97,-678.03 445.61,-698.73 476.75,-742.77 626.79,-782.71 709.47,-801.84"/>
<polygon fill="#000000" fill-opacity="0.200000" stroke="#000000" stroke-width="2" stroke-opacity="0.200000" points="708.97,-803.87 715.28,-803.17 709.9,-799.78 708.97,-803.87"/>
</g>
<!-- src/components/buttons/AddBtn.jsx&#45;&gt;src/styles/Header.css -->
<g id="edge14" class="edge">
<title>src/components/buttons/AddBtn.jsx&#45;&gt;src/styles/Header.css</title>
<path fill="none" stroke="#000000" stroke-width="2" stroke-opacity="0.200000" d="M517.9,-258.56C529.37,-265.59 543.09,-276.19 550.14,-289.73 570.83,-329.42 547.32,-448.86 563.14,-490.73 595.52,-576.39 655.41,-568.61 689.18,-653.73 695.93,-670.75 685.15,-721.93 697.18,-735.73 704.33,-743.93 714.85,-748.33 725.45,-750.59"/>
<polygon fill="#000000" fill-opacity="0.200000" stroke="#000000" stroke-width="2" stroke-opacity="0.200000" points="725.06,-752.65 731.32,-751.54 725.74,-748.51 725.06,-752.65"/>
</g>
<!-- src/components/buttons/DeleteBtn.jsx&#45;&gt;src/styles/Header.css -->
<g id="edge15" class="edge">
<title>src/components/buttons/DeleteBtn.jsx&#45;&gt;src/styles/Header.css</title>
<path fill="none" stroke="#000000" stroke-width="2" stroke-opacity="0.200000" d="M532.78,-191.07C539.47,-193.48 545.77,-197.16 550.14,-202.73 578.6,-238.99 539.91,-369.93 563.14,-409.73 596.83,-467.45 656.36,-433.52 689.18,-491.73 702.5,-515.36 680.02,-714.72 697.18,-735.73 704.19,-744.31 714.9,-748.79 725.72,-751"/>
<polygon fill="#000000" fill-opacity="0.200000" stroke="#000000" stroke-width="2" stroke-opacity="0.200000" points="725.11,-753.03 731.36,-751.86 725.74,-748.88 725.11,-753.03"/>
</g>
<!-- src/components/categories/CategoryListLiMap.jsx -->
<g id="node24" class="node">
<title>src/components/categories/CategoryListLiMap.jsx</title>
<g id="a_node24"><a xlink:href="src/components/categories/CategoryListLiMap.jsx" xlink:title="CategoryListLiMap.jsx">
<path fill="#ffff77" stroke="black" d="M543.88,-380.13C543.88,-380.13 451.87,-380.13 451.87,-380.13 448.74,-380.13 445.61,-377 445.61,-373.86 445.61,-373.86 445.61,-367.6 445.61,-367.6 445.61,-364.46 448.74,-361.33 451.87,-361.33 451.87,-361.33 543.88,-361.33 543.88,-361.33 547.01,-361.33 550.14,-364.46 550.14,-367.6 550.14,-367.6 550.14,-373.86 550.14,-373.86 550.14,-377 547.01,-380.13 543.88,-380.13"/>
<text text-anchor="start" x="453.61" y="-368.03" font-family="Helvetica,sans-Serif" font-size="9.00">CategoryListLiMap.jsx</text>
</a>
</g>
</g>
<!-- src/components/categories/CategoryListFetch.jsx&#45;&gt;src/components/categories/CategoryListLiMap.jsx -->
<g id="edge16" class="edge">
<title>src/components/categories/CategoryListFetch.jsx&#45;&gt;src/components/categories/CategoryListLiMap.jsx</title>
<path fill="none" stroke="#000000" stroke-width="2" stroke-opacity="0.200000" d="M417.63,-370.73C423.9,-370.73 430.35,-370.73 436.74,-370.73"/>
<polygon fill="#000000" fill-opacity="0.200000" stroke="#000000" stroke-width="2" stroke-opacity="0.200000" points="436.36,-372.83 442.36,-370.73 436.36,-368.63 436.36,-372.83"/>
</g>
<!-- src/components/categories/CategoryListForLiMap.jsx -->
<g id="node25" class="node">
<title>src/components/categories/CategoryListForLiMap.jsx</title>
<g id="a_node25"><a xlink:href="src/components/categories/CategoryListForLiMap.jsx" xlink:title="CategoryListForLiMap.jsx">
<path fill="#ffff77" stroke="black" d="M674.91,-380.13C674.91,-380.13 569.41,-380.13 569.41,-380.13 566.28,-380.13 563.14,-377 563.14,-373.86 563.14,-373.86 563.14,-367.6 563.14,-367.6 563.14,-364.46 566.28,-361.33 569.41,-361.33 569.41,-361.33 674.91,-361.33 674.91,-361.33 678.05,-361.33 681.18,-364.46 681.18,-367.6 681.18,-367.6 681.18,-373.86 681.18,-373.86 681.18,-377 678.05,-380.13 674.91,-380.13"/>
<text text-anchor="start" x="571.14" y="-368.03" font-family="Helvetica,sans-Serif" font-size="9.00">CategoryListForLiMap.jsx</text>
</a>
</g>
</g>
<!-- src/components/categories/CategoryListLiMap.jsx&#45;&gt;src/components/categories/CategoryListForLiMap.jsx -->
<g id="edge18" class="edge">
<title>src/components/categories/CategoryListLiMap.jsx&#45;&gt;src/components/categories/CategoryListForLiMap.jsx</title>
<path fill="none" stroke="#000000" stroke-width="2" stroke-opacity="0.200000" d="M550.38,-370.73C551.69,-370.73 553,-370.73 554.31,-370.73"/>
<polygon fill="#000000" fill-opacity="0.200000" stroke="#000000" stroke-width="2" stroke-opacity="0.200000" points="553.99,-372.83 559.99,-370.73 553.99,-368.63 553.99,-372.83"/>
</g>
<!-- src/styles/CategoryListForLiMap.css -->
<g id="node26" class="node">
<title>src/styles/CategoryListForLiMap.css</title>
<g id="a_node26"><a xlink:href="src/styles/CategoryListForLiMap.css" xlink:title="CategoryListForLiMap.css">
<path fill="#ffffcc" stroke="black" d="M819.45,-730.13C819.45,-730.13 711.45,-730.13 711.45,-730.13 708.31,-730.13 705.18,-727 705.18,-723.86 705.18,-723.86 705.18,-717.6 705.18,-717.6 705.18,-714.46 708.31,-711.33 711.45,-711.33 711.45,-711.33 819.45,-711.33 819.45,-711.33 822.58,-711.33 825.72,-714.46 825.72,-717.6 825.72,-717.6 825.72,-723.86 825.72,-723.86 825.72,-727 822.58,-730.13 819.45,-730.13"/>
<text text-anchor="start" x="713.18" y="-718.03" font-family="Helvetica,sans-Serif" font-size="9.00">CategoryListForLiMap.css</text>
</a>
</g>
</g>
<!-- src/components/categories/CategoryListForLiMap.jsx&#45;&gt;src/styles/CategoryListForLiMap.css -->
<g id="edge17" class="edge">
<title>src/components/categories/CategoryListForLiMap.jsx&#45;&gt;src/styles/CategoryListForLiMap.css</title>
<path fill="none" stroke="#000000" stroke-width="2" stroke-opacity="0.200000" d="M629.97,-380.51C642.93,-399.49 671.44,-442.95 689.18,-482.73 724.31,-561.51 750.31,-661.66 760.15,-702.33"/>
<polygon fill="#000000" fill-opacity="0.200000" stroke="#000000" stroke-width="2" stroke-opacity="0.200000" points="758.06,-702.63 761.49,-707.98 762.14,-701.65 758.06,-702.63"/>
</g>
<!-- src/components/fff.jsx -->
<g id="node27" class="node">
<title>src/components/fff.jsx</title>
<g id="a_node27"><a xlink:href="src/components/fff.jsx" xlink:title="no&#45;orphans">
<path fill="#ccffcc" stroke="orange" d="M386.81,-669.13C386.81,-669.13 345.35,-669.13 345.35,-669.13 342.21,-669.13 339.08,-666 339.08,-662.86 339.08,-662.86 339.08,-656.6 339.08,-656.6 339.08,-653.46 342.21,-650.33 345.35,-650.33 345.35,-650.33 386.81,-650.33 386.81,-650.33 389.95,-650.33 393.08,-653.46 393.08,-656.6 393.08,-656.6 393.08,-662.86 393.08,-662.86 393.08,-666 389.95,-669.13 386.81,-669.13"/>
<text text-anchor="start" x="355.58" y="-657.03" font-family="Helvetica,sans-Serif" font-size="9.00" fill="orange">fff.jsx</text>
</a>
</g>
</g>
<!-- src/styles/LayoutBasePages.css -->
<g id="node31" class="node">
<title>src/styles/LayoutBasePages.css</title>
<g id="a_node31"><a xlink:href="src/styles/LayoutBasePages.css" xlink:title="LayoutBasePages.css">
<path fill="#ffffcc" stroke="black" d="M811.71,-854.13C811.71,-854.13 719.19,-854.13 719.19,-854.13 716.05,-854.13 712.92,-851 712.92,-847.86 712.92,-847.86 712.92,-841.6 712.92,-841.6 712.92,-838.46 716.05,-835.33 719.19,-835.33 719.19,-835.33 811.71,-835.33 811.71,-835.33 814.84,-835.33 817.98,-838.46 817.98,-841.6 817.98,-841.6 817.98,-847.86 817.98,-847.86 817.98,-851 814.84,-854.13 811.71,-854.13"/>
<text text-anchor="start" x="720.92" y="-842.03" font-family="Helvetica,sans-Serif" font-size="9.00">LayoutBasePages.css</text>
</a>
</g>
</g>
<!-- src/components/layout/LayoutBasePages.jsx&#45;&gt;src/styles/LayoutBasePages.css -->
<g id="edge22" class="edge">
<title>src/components/layout/LayoutBasePages.jsx&#45;&gt;src/styles/LayoutBasePages.css</title>
<path fill="none" stroke="#000000" stroke-width="2" stroke-opacity="0.200000" d="M417.75,-576.56C425.35,-578.91 432.37,-582.72 437.61,-588.73 450.47,-603.49 433.24,-749.55 445.61,-764.73 507.52,-840.74 629.89,-850.76 703.72,-849.13"/>
<polygon fill="#000000" fill-opacity="0.200000" stroke="#000000" stroke-width="2" stroke-opacity="0.200000" points="703.51,-851.24 709.45,-848.97 703.39,-847.04 703.51,-851.24"/>
</g>
<!-- src/components/listings/ListingForLi.jsx -->
<g id="node32" class="node">
<title>src/components/listings/ListingForLi.jsx</title>
<g id="a_node32"><a xlink:href="src/components/listings/ListingForLi.jsx" xlink:title="ListingForLi.jsx">
<path fill="#ffff77" stroke="black" d="M797.19,-135.13C797.19,-135.13 733.71,-135.13 733.71,-135.13 730.57,-135.13 727.44,-132 727.44,-128.86 727.44,-128.86 727.44,-122.6 727.44,-122.6 727.44,-119.46 730.57,-116.33 733.71,-116.33 733.71,-116.33 797.19,-116.33 797.19,-116.33 800.33,-116.33 803.46,-119.46 803.46,-122.6 803.46,-122.6 803.46,-128.86 803.46,-128.86 803.46,-132 800.33,-135.13 797.19,-135.13"/>
<text text-anchor="start" x="735.44" y="-123.03" font-family="Helvetica,sans-Serif" font-size="9.00">ListingForLi.jsx</text>
</a>
</g>
</g>
<!-- src/components/listings/ListingsListFetch.jsx -->
<g id="node34" class="node">
<title>src/components/listings/ListingsListFetch.jsx</title>
<g id="a_node34"><a xlink:href="src/components/listings/ListingsListFetch.jsx" xlink:title="ListingsListFetch.jsx">
<path fill="#ffff77" stroke="black" d="M539.87,-135.13C539.87,-135.13 455.88,-135.13 455.88,-135.13 452.74,-135.13 449.61,-132 449.61,-128.86 449.61,-128.86 449.61,-122.6 449.61,-122.6 449.61,-119.46 452.74,-116.33 455.88,-116.33 455.88,-116.33 539.87,-116.33 539.87,-116.33 543.01,-116.33 546.14,-119.46 546.14,-122.6 546.14,-122.6 546.14,-128.86 546.14,-128.86 546.14,-132 543.01,-135.13 539.87,-135.13"/>
<text text-anchor="start" x="457.61" y="-123.03" font-family="Helvetica,sans-Serif" font-size="9.00">ListingsListFetch.jsx</text>
</a>
</g>
</g>
<!-- src/components/listings/ListingsFetchWrapper.jsx&#45;&gt;src/components/listings/ListingsListFetch.jsx -->
<g id="edge23" class="edge">
<title>src/components/listings/ListingsFetchWrapper.jsx&#45;&gt;src/components/listings/ListingsListFetch.jsx</title>
<path fill="none" stroke="#000000" stroke-width="2" stroke-opacity="0.200000" d="M424.77,-125.73C430.06,-125.73 435.41,-125.73 440.69,-125.73"/>
<polygon fill="#000000" fill-opacity="0.200000" stroke="#000000" stroke-width="2" stroke-opacity="0.200000" points="440.45,-127.83 446.45,-125.73 440.45,-123.63 440.45,-127.83"/>
</g>
<!-- src/components/listings/ListingsList.jsx -->
<g id="node35" class="node">
<title>src/components/listings/ListingsList.jsx</title>
<g id="a_node35"><a xlink:href="src/components/listings/ListingsList.jsx" xlink:title="ListingsList.jsx">
<path fill="#ffff77" stroke="black" d="M652.91,-135.13C652.91,-135.13 591.42,-135.13 591.42,-135.13 588.29,-135.13 585.15,-132 585.15,-128.86 585.15,-128.86 585.15,-122.6 585.15,-122.6 585.15,-119.46 588.29,-116.33 591.42,-116.33 591.42,-116.33 652.91,-116.33 652.91,-116.33 656.04,-116.33 659.17,-119.46 659.17,-122.6 659.17,-122.6 659.17,-128.86 659.17,-128.86 659.17,-132 656.04,-135.13 652.91,-135.13"/>
<text text-anchor="start" x="593.15" y="-123.03" font-family="Helvetica,sans-Serif" font-size="9.00">ListingsList.jsx</text>
</a>
</g>
</g>
<!-- src/components/listings/ListingsListFetch.jsx&#45;&gt;src/components/listings/ListingsList.jsx -->
<g id="edge25" class="edge">
<title>src/components/listings/ListingsListFetch.jsx&#45;&gt;src/components/listings/ListingsList.jsx</title>
<path fill="none" stroke="#000000" stroke-width="2" stroke-opacity="0.200000" d="M546.51,-125.73C556.16,-125.73 566.29,-125.73 575.86,-125.73"/>
<polygon fill="#000000" fill-opacity="0.200000" stroke="#000000" stroke-width="2" stroke-opacity="0.200000" points="575.81,-127.83 581.81,-125.73 575.81,-123.63 575.81,-127.83"/>
</g>
<!-- src/components/listings/ListingsList.jsx&#45;&gt;src/components/listings/ListingForLi.jsx -->
<g id="edge24" class="edge">
<title>src/components/listings/ListingsList.jsx&#45;&gt;src/components/listings/ListingForLi.jsx</title>
<path fill="none" stroke="#000000" stroke-width="2" stroke-opacity="0.200000" d="M659.55,-125.73C677.48,-125.73 699.29,-125.73 718.37,-125.73"/>
<polygon fill="#000000" fill-opacity="0.200000" stroke="#000000" stroke-width="2" stroke-opacity="0.200000" points="718.18,-127.83 724.18,-125.73 718.18,-123.63 718.18,-127.83"/>
</g>
<!-- src/components/towns/TownPageLi.jsx -->
<g id="node36" class="node">
<title>src/components/towns/TownPageLi.jsx</title>
<g id="a_node36"><a xlink:href="src/components/towns/TownPageLi.jsx" xlink:title="TownPageLi.jsx">
<path fill="#ffff77" stroke="black" d="M531.37,-319.13C531.37,-319.13 464.38,-319.13 464.38,-319.13 461.24,-319.13 458.11,-316 458.11,-312.86 458.11,-312.86 458.11,-306.6 458.11,-306.6 458.11,-303.46 461.24,-300.33 464.38,-300.33 464.38,-300.33 531.37,-300.33 531.37,-300.33 534.51,-300.33 537.64,-303.46 537.64,-306.6 537.64,-306.6 537.64,-312.86 537.64,-312.86 537.64,-316 534.51,-319.13 531.37,-319.13"/>
<text text-anchor="start" x="466.11" y="-307.03" font-family="Helvetica,sans-Serif" font-size="9.00">TownPageLi.jsx</text>
</a>
</g>
</g>
<!-- src/components/towns/TownsList.jsx&#45;&gt;src/components/towns/TownPageLi.jsx -->
<g id="edge26" class="edge">
<title>src/components/towns/TownsList.jsx&#45;&gt;src/components/towns/TownPageLi.jsx</title>
<path fill="none" stroke="#000000" stroke-width="2" stroke-opacity="0.200000" d="M401.52,-309.73C415.96,-309.73 433,-309.73 448.66,-309.73"/>
<polygon fill="#000000" fill-opacity="0.200000" stroke="#000000" stroke-width="2" stroke-opacity="0.200000" points="448.65,-311.83 454.65,-309.73 448.65,-307.63 448.65,-311.83"/>
</g>
<!-- src/main.jsx -->
<g id="node38" class="node">
<title>src/main.jsx</title>
<g id="a_node38"><a xlink:href="src/main.jsx" xlink:title="main.jsx">
<path fill="#ffff77" stroke="black" d="M63.73,-916.13C63.73,-916.13 22.27,-916.13 22.27,-916.13 19.13,-916.13 16,-913 16,-909.86 16,-909.86 16,-903.6 16,-903.6 16,-900.46 19.13,-897.33 22.27,-897.33 22.27,-897.33 63.73,-897.33 63.73,-897.33 66.87,-897.33 70,-900.46 70,-903.6 70,-903.6 70,-909.86 70,-909.86 70,-913 66.87,-916.13 63.73,-916.13"/>
<text text-anchor="start" x="26.5" y="-904.03" font-family="Helvetica,sans-Serif" font-size="9.00">main.jsx</text>
</a>
</g>
</g>
<!-- src/main.jsx&#45;&gt;src/App.jsx -->
<g id="edge27" class="edge">
<title>src/main.jsx&#45;&gt;src/App.jsx</title>
<path fill="none" stroke="#000000" stroke-width="2" stroke-opacity="0.200000" d="M45.24,-897.13C53.1,-836.31 95.98,-504.46 106.61,-422.19"/>
<polygon fill="#000000" fill-opacity="0.200000" stroke="#000000" stroke-width="2" stroke-opacity="0.200000" points="108.67,-422.65 107.36,-416.43 104.51,-422.11 108.67,-422.65"/>
</g>
<!-- src/styles/global.css -->
<g id="node39" class="node">
<title>src/styles/global.css</title>
<g id="a_node39"><a xlink:href="src/styles/global.css" xlink:title="global.css">
<path fill="#ffffcc" stroke="black" d="M787.19,-916.13C787.19,-916.13 743.71,-916.13 743.71,-916.13 740.57,-916.13 737.44,-913 737.44,-909.86 737.44,-909.86 737.44,-903.6 737.44,-903.6 737.44,-900.46 740.57,-897.33 743.71,-897.33 743.71,-897.33 787.19,-897.33 787.19,-897.33 790.33,-897.33 793.46,-900.46 793.46,-903.6 793.46,-903.6 793.46,-909.86 793.46,-909.86 793.46,-913 790.33,-916.13 787.19,-916.13"/>
<text text-anchor="start" x="745.44" y="-904.03" font-family="Helvetica,sans-Serif" font-size="9.00">global.css</text>
</a>
</g>
</g>
<!-- src/main.jsx&#45;&gt;src/styles/global.css -->
<g id="edge28" class="edge">
<title>src/main.jsx&#45;&gt;src/styles/global.css</title>
<path fill="none" stroke="#000000" stroke-width="2" stroke-opacity="0.200000" d="M70.29,-906.73C103.15,-906.73 161.12,-906.73 210.78,-906.73 210.78,-906.73 210.78,-906.73 498.88,-906.73 580.91,-906.73 677.2,-906.73 728.3,-906.73"/>
<polygon fill="#000000" fill-opacity="0.200000" stroke="#000000" stroke-width="2" stroke-opacity="0.200000" points="728.28,-908.83 734.28,-906.73 728.28,-904.63 728.28,-908.83"/>
</g>
<!-- src/styles/index.css -->
<g id="node40" class="node">
<title>src/styles/index.css</title>
<g id="a_node40"><a xlink:href="src/styles/index.css" xlink:title="index.css">
<path fill="#ffffcc" stroke="black" d="M786.18,-947.13C786.18,-947.13 744.72,-947.13 744.72,-947.13 741.58,-947.13 738.45,-944 738.45,-940.86 738.45,-940.86 738.45,-934.6 738.45,-934.6 738.45,-931.46 741.58,-928.33 744.72,-928.33 744.72,-928.33 786.18,-928.33 786.18,-928.33 789.32,-928.33 792.45,-931.46 792.45,-934.6 792.45,-934.6 792.45,-940.86 792.45,-940.86 792.45,-944 789.32,-947.13 786.18,-947.13"/>
<text text-anchor="start" x="746.69" y="-935.03" font-family="Helvetica,sans-Serif" font-size="9.00">index.css</text>
</a>
</g>
</g>
<!-- src/main.jsx&#45;&gt;src/styles/index.css -->
<g id="edge29" class="edge">
<title>src/main.jsx&#45;&gt;src/styles/index.css</title>
<path fill="none" stroke="#000000" stroke-width="2" stroke-opacity="0.200000" d="M70.43,-912.4C103.2,-918.92 160.84,-928.73 210.78,-928.73 210.78,-928.73 210.78,-928.73 498.88,-928.73 581.39,-928.73 678.25,-933.12 729.12,-935.77"/>
<polygon fill="#000000" fill-opacity="0.200000" stroke="#000000" stroke-width="2" stroke-opacity="0.200000" points="728.95,-937.87 735.05,-936.09 729.17,-933.67 728.95,-937.87"/>
</g>
</g>
</svg>
