<?xml version="1.0" encoding="UTF-8" standalone="no"?>
<!DOCTYPE svg PUBLIC "-//W3C//DTD SVG 1.1//EN"
 "http://www.w3.org/Graphics/SVG/1.1/DTD/svg11.dtd">
<!-- Generated by graphviz version 12.0.0 (20240704.0754)
 -->
<!-- Title: dependency&#45;cruiser output Pages: 1 -->
<svg width="871pt" height="984pt"
 viewBox="0.00 0.00 870.50 984.00" xmlns="http://www.w3.org/2000/svg" xmlns:xlink="http://www.w3.org/1999/xlink">
<g id="graph0" class="graph" transform="scale(1 1) rotate(0) translate(4 980)">
<title>dependency&#45;cruiser output</title>
<polygon fill="white" stroke="none" points="-4,4 -4,-980 866.5,-980 866.5,4 -4,4"/>
<g id="clust1" class="cluster">
<title>cluster_src</title>
<path fill="#ffffff" stroke="black" stroke-width="2" d="M20,-8C20,-8 842.5,-8 842.5,-8 848.5,-8 854.5,-14 854.5,-20 854.5,-20 854.5,-956 854.5,-956 854.5,-962 848.5,-968 842.5,-968 842.5,-968 20,-968 20,-968 14,-968 8,-962 8,-956 8,-956 8,-20 8,-20 8,-14 14,-8 20,-8"/>
<text text-anchor="middle" x="431.25" y="-955.45" font-family="Helvetica,sans-Serif" font-weight="bold" font-size="9.00">src</text>
</g>
<g id="clust2" class="cluster">
<title>cluster_src/components</title>
<path fill="#ffffff" stroke="black" stroke-width="2" d="M302,-16C302,-16 820,-16 820,-16 826,-16 832,-22 832,-28 832,-28 832,-680 832,-680 832,-686 826,-692 820,-692 820,-692 302,-692 302,-692 296,-692 290,-686 290,-680 290,-680 290,-28 290,-28 290,-22 296,-16 302,-16"/>
<text text-anchor="middle" x="561" y="-679.45" font-family="Helvetica,sans-Serif" font-weight="bold" font-size="9.00">components</text>
</g>
<g id="clust3" class="cluster">
<title>cluster_src/components/UI</title>
<path fill="#ffffff" stroke="black" stroke-width="2" d="M328.38,-551C328.38,-551 414.38,-551 414.38,-551 420.38,-551 426.38,-557 426.38,-563 426.38,-563 426.38,-594 426.38,-594 426.38,-600 420.38,-606 414.38,-606 414.38,-606 328.38,-606 328.38,-606 322.38,-606 316.38,-600 316.38,-594 316.38,-594 316.38,-563 316.38,-563 316.38,-557 322.38,-551 328.38,-551"/>
<text text-anchor="middle" x="371.38" y="-593.45" font-family="Helvetica,sans-Serif" font-weight="bold" font-size="9.00">UI</text>
</g>
<g id="clust4" class="cluster">
<title>cluster_src/components/buttons</title>
<path fill="#ffffff" stroke="black" stroke-width="2" d="M474.75,-181C474.75,-181 536.75,-181 536.75,-181 542.75,-181 548.75,-187 548.75,-193 548.75,-193 548.75,-286 548.75,-286 548.75,-292 542.75,-298 536.75,-298 536.75,-298 474.75,-298 474.75,-298 468.75,-298 462.75,-292 462.75,-286 462.75,-286 462.75,-193 462.75,-193 462.75,-187 468.75,-181 474.75,-181"/>
<text text-anchor="middle" x="505.75" y="-285.45" font-family="Helvetica,sans-Serif" font-weight="bold" font-size="9.00">buttons</text>
</g>
<g id="clust5" class="cluster">
<title>cluster_src/components/categories</title>
<path fill="#ffffff" stroke="black" stroke-width="2" d="M323.5,-369C323.5,-369 687.25,-369 687.25,-369 693.25,-369 699.25,-375 699.25,-381 699.25,-381 699.25,-412 699.25,-412 699.25,-418 693.25,-424 687.25,-424 687.25,-424 323.5,-424 323.5,-424 317.5,-424 311.5,-418 311.5,-412 311.5,-412 311.5,-381 311.5,-381 311.5,-375 317.5,-369 323.5,-369"/>
<text text-anchor="middle" x="505.38" y="-411.45" font-family="Helvetica,sans-Serif" font-weight="bold" font-size="9.00">categories</text>
</g>
<g id="clust6" class="cluster">
<title>cluster_src/components/filters</title>
<path fill="#ffffff" stroke="black" stroke-width="2" d="M310,-460C310,-460 432.75,-460 432.75,-460 438.75,-460 444.75,-466 444.75,-472 444.75,-472 444.75,-503 444.75,-503 444.75,-509 438.75,-515 432.75,-515 432.75,-515 310,-515 310,-515 304,-515 298,-509 298,-503 298,-503 298,-472 298,-472 298,-466 304,-460 310,-460"/>
<text text-anchor="middle" x="371.38" y="-502.45" font-family="Helvetica,sans-Serif" font-weight="bold" font-size="9.00">filters</text>
</g>
<g id="clust7" class="cluster">
<title>cluster_src/components/layout</title>
<path fill="#ffffff" stroke="black" stroke-width="2" d="M322.75,-87C322.75,-87 531.5,-87 531.5,-87 537.5,-87 543.5,-93 543.5,-99 543.5,-99 543.5,-161 543.5,-161 543.5,-167 537.5,-173 531.5,-173 531.5,-173 322.75,-173 322.75,-173 316.75,-173 310.75,-167 310.75,-161 310.75,-161 310.75,-99 310.75,-99 310.75,-93 316.75,-87 322.75,-87"/>
<text text-anchor="middle" x="427.12" y="-160.45" font-family="Helvetica,sans-Serif" font-weight="bold" font-size="9.00">layout</text>
</g>
<g id="clust8" class="cluster">
<title>cluster_src/components/listings</title>
<path fill="#ffffff" stroke="black" stroke-width="2" d="M315.25,-24C315.25,-24 812,-24 812,-24 818,-24 824,-30 824,-36 824,-36 824,-67 824,-67 824,-73 818,-79 812,-79 812,-79 315.25,-79 315.25,-79 309.25,-79 303.25,-73 303.25,-67 303.25,-67 303.25,-36 303.25,-36 303.25,-30 309.25,-24 315.25,-24"/>
<text text-anchor="middle" x="563.62" y="-66.45" font-family="Helvetica,sans-Serif" font-weight="bold" font-size="9.00">listings</text>
</g>
<g id="clust9" class="cluster">
<title>cluster_src/components/towns</title>
<path fill="#ffffff" stroke="black" stroke-width="2" d="M339.25,-306C339.25,-306 542.38,-306 542.38,-306 548.38,-306 554.38,-312 554.38,-318 554.38,-318 554.38,-349 554.38,-349 554.38,-355 548.38,-361 542.38,-361 542.38,-361 339.25,-361 339.25,-361 333.25,-361 327.25,-355 327.25,-349 327.25,-349 327.25,-318 327.25,-318 327.25,-312 333.25,-306 339.25,-306"/>
<text text-anchor="middle" x="440.81" y="-348.45" font-family="Helvetica,sans-Serif" font-weight="bold" font-size="9.00">towns</text>
</g>
<g id="clust10" class="cluster">
<title>cluster_src/pages</title>
<path fill="#ffffff" stroke="black" stroke-width="2" d="M157,-338C157,-338 270,-338 270,-338 276,-338 282,-344 282,-350 282,-350 282,-412 282,-412 282,-418 276,-424 270,-424 270,-424 157,-424 157,-424 151,-424 145,-418 145,-412 145,-412 145,-350 145,-350 145,-344 151,-338 157,-338"/>
<text text-anchor="middle" x="213.5" y="-411.45" font-family="Helvetica,sans-Serif" font-weight="bold" font-size="9.00">pages</text>
</g>
<g id="clust11" class="cluster">
<title>cluster_src/styles</title>
<path fill="#ffffff" stroke="black" stroke-width="2" d="M719.25,-700C719.25,-700 834.5,-700 834.5,-700 840.5,-700 846.5,-706 846.5,-712 846.5,-712 846.5,-929 846.5,-929 846.5,-935 840.5,-941 834.5,-941 834.5,-941 719.25,-941 719.25,-941 713.25,-941 707.25,-935 707.25,-929 707.25,-929 707.25,-712 707.25,-712 707.25,-706 713.25,-700 719.25,-700"/>
<text text-anchor="middle" x="776.88" y="-928.45" font-family="Helvetica,sans-Serif" font-weight="bold" font-size="9.00">styles</text>
</g>
<!-- src/App.jsx -->
<g id="node1" class="node">
<title>src/App.jsx</title>
<g id="a_node1"><a xlink:href="src/App.jsx" xlink:title="App.jsx">
<path fill="#ffff77" stroke="black" d="M130.58,-380.62C130.58,-380.62 89.42,-380.62 89.42,-380.62 86.21,-380.62 83,-377.42 83,-374.21 83,-374.21 83,-367.79 83,-367.79 83,-364.58 86.21,-361.38 89.42,-361.38 89.42,-361.38 130.58,-361.38 130.58,-361.38 133.79,-361.38 137,-364.58 137,-367.79 137,-367.79 137,-374.21 137,-374.21 137,-377.42 133.79,-380.62 130.58,-380.62"/>
<text text-anchor="start" x="95.38" y="-368.07" font-family="Helvetica,sans-Serif" font-size="9.00">App.jsx</text>
</a>
</g>
</g>
<!-- src/components/layout/Header.jsx -->
<g id="node2" class="node">
<title>src/components/layout/Header.jsx</title>
<g id="a_node2"><a xlink:href="src/components/layout/Header.jsx" xlink:title="Header.jsx">
<path fill="#ffff77" stroke="black" d="M395.08,-114.62C395.08,-114.62 347.67,-114.62 347.67,-114.62 344.46,-114.62 341.25,-111.42 341.25,-108.21 341.25,-108.21 341.25,-101.79 341.25,-101.79 341.25,-98.58 344.46,-95.38 347.67,-95.38 347.67,-95.38 395.08,-95.38 395.08,-95.38 398.29,-95.38 401.5,-98.58 401.5,-101.79 401.5,-101.79 401.5,-108.21 401.5,-108.21 401.5,-111.42 398.29,-114.62 395.08,-114.62"/>
<text text-anchor="start" x="349.25" y="-102.08" font-family="Helvetica,sans-Serif" font-size="9.00">Header.jsx</text>
</a>
</g>
</g>
<!-- src/App.jsx&#45;&gt;src/components/layout/Header.jsx -->
<g id="edge1" class="edge">
<title>src/App.jsx&#45;&gt;src/components/layout/Header.jsx</title>
<path fill="none" stroke="#000000" stroke-width="2" stroke-opacity="0.200000" d="M114.84,-361C130.16,-322.55 190.96,-183.19 290,-120 302.49,-112.03 318.15,-108.07 332.32,-106.17"/>
<polygon fill="#000000" fill-opacity="0.200000" stroke="#000000" stroke-width="2" stroke-opacity="0.200000" points="332.16,-108.3 337.9,-105.56 331.71,-104.12 332.16,-108.3"/>
</g>
<!-- src/pages/PageHome.jsx -->
<g id="node3" class="node">
<title>src/pages/PageHome.jsx</title>
<g id="a_node3"><a xlink:href="src/pages/PageHome.jsx" xlink:title="PageHome.jsx">
<path fill="#ffff77" stroke="black" d="M245.46,-396.62C245.46,-396.62 181.54,-396.62 181.54,-396.62 178.33,-396.62 175.12,-393.42 175.12,-390.21 175.12,-390.21 175.12,-383.79 175.12,-383.79 175.12,-380.58 178.33,-377.38 181.54,-377.38 181.54,-377.38 245.46,-377.38 245.46,-377.38 248.67,-377.38 251.88,-380.58 251.88,-383.79 251.88,-383.79 251.88,-390.21 251.88,-390.21 251.88,-393.42 248.67,-396.62 245.46,-396.62"/>
<text text-anchor="start" x="183.12" y="-384.07" font-family="Helvetica,sans-Serif" font-size="9.00">PageHome.jsx</text>
</a>
</g>
</g>
<!-- src/App.jsx&#45;&gt;src/pages/PageHome.jsx -->
<g id="edge2" class="edge">
<title>src/App.jsx&#45;&gt;src/pages/PageHome.jsx</title>
<path fill="none" stroke="#000000" stroke-width="2" stroke-opacity="0.200000" d="M137.4,-375.16C146.13,-376.54 156.11,-378.11 165.89,-379.65"/>
<polygon fill="#000000" fill-opacity="0.200000" stroke="#000000" stroke-width="2" stroke-opacity="0.200000" points="165.52,-381.72 171.77,-380.58 166.17,-377.57 165.52,-381.72"/>
</g>
<!-- src/pages/PageListingsCategory.jsx -->
<g id="node4" class="node">
<title>src/pages/PageListingsCategory.jsx</title>
<g id="a_node4"><a xlink:href="src/pages/PageListingsCategory.jsx" xlink:title="PageListingsCategory.jsx">
<path fill="#ffff77" stroke="black" d="M267.58,-365.62C267.58,-365.62 159.42,-365.62 159.42,-365.62 156.21,-365.62 153,-362.42 153,-359.21 153,-359.21 153,-352.79 153,-352.79 153,-349.58 156.21,-346.38 159.42,-346.38 159.42,-346.38 267.58,-346.38 267.58,-346.38 270.79,-346.38 274,-349.58 274,-352.79 274,-352.79 274,-359.21 274,-359.21 274,-362.42 270.79,-365.62 267.58,-365.62"/>
<text text-anchor="start" x="161" y="-353.07" font-family="Helvetica,sans-Serif" font-size="9.00">PageListingsCategory.jsx</text>
</a>
</g>
</g>
<!-- src/App.jsx&#45;&gt;src/pages/PageListingsCategory.jsx -->
<g id="edge3" class="edge">
<title>src/App.jsx&#45;&gt;src/pages/PageListingsCategory.jsx</title>
<path fill="none" stroke="#000000" stroke-width="2" stroke-opacity="0.200000" d="M137.4,-367.1C139.51,-366.79 141.69,-366.46 143.92,-366.13"/>
<polygon fill="#000000" fill-opacity="0.200000" stroke="#000000" stroke-width="2" stroke-opacity="0.200000" points="144.13,-368.23 149.76,-365.27 143.52,-364.07 144.13,-368.23"/>
</g>
<!-- src/components/buttons/AddBtn.jsx -->
<g id="node11" class="node">
<title>src/components/buttons/AddBtn.jsx</title>
<g id="a_node11"><a xlink:href="src/components/buttons/AddBtn.jsx" xlink:title="AddBtn.jsx">
<path fill="#ffff77" stroke="black" d="M528.71,-239.62C528.71,-239.62 482.79,-239.62 482.79,-239.62 479.58,-239.62 476.38,-236.42 476.38,-233.21 476.38,-233.21 476.38,-226.79 476.38,-226.79 476.38,-223.58 479.58,-220.38 482.79,-220.38 482.79,-220.38 528.71,-220.38 528.71,-220.38 531.92,-220.38 535.12,-223.58 535.12,-226.79 535.12,-226.79 535.12,-233.21 535.12,-233.21 535.12,-236.42 531.92,-239.62 528.71,-239.62"/>
<text text-anchor="start" x="484.38" y="-227.07" font-family="Helvetica,sans-Serif" font-size="9.00">AddBtn.jsx</text>
</a>
</g>
</g>
<!-- src/components/layout/Header.jsx&#45;&gt;src/components/buttons/AddBtn.jsx -->
<g id="edge12" class="edge">
<title>src/components/layout/Header.jsx&#45;&gt;src/components/buttons/AddBtn.jsx</title>
<path fill="none" stroke="#000000" stroke-width="2" stroke-opacity="0.200000" d="M401.84,-103.35C416.89,-104.2 434.2,-108.09 444.75,-120 458.8,-135.85 439.31,-198.62 452.75,-215 456.59,-219.69 461.8,-222.96 467.44,-225.24"/>
<polygon fill="#000000" fill-opacity="0.200000" stroke="#000000" stroke-width="2" stroke-opacity="0.200000" points="466.67,-227.2 473.02,-227.01 467.93,-223.2 466.67,-227.2"/>
</g>
<!-- src/styles/Header.css -->
<g id="node12" class="node">
<title>src/styles/Header.css</title>
<g id="a_node12"><a xlink:href="src/styles/Header.css" xlink:title="Header.css">
<path fill="#ffffcc" stroke="black" d="M802.46,-758.62C802.46,-758.62 751.29,-758.62 751.29,-758.62 748.08,-758.62 744.88,-755.42 744.88,-752.21 744.88,-752.21 744.88,-745.79 744.88,-745.79 744.88,-742.58 748.08,-739.38 751.29,-739.38 751.29,-739.38 802.46,-739.38 802.46,-739.38 805.67,-739.38 808.88,-742.58 808.88,-745.79 808.88,-745.79 808.88,-752.21 808.88,-752.21 808.88,-755.42 805.67,-758.62 802.46,-758.62"/>
<text text-anchor="start" x="752.88" y="-746.08" font-family="Helvetica,sans-Serif" font-size="9.00">Header.css</text>
</a>
</g>
</g>
<!-- src/components/layout/Header.jsx&#45;&gt;src/styles/Header.css -->
<g id="edge11" class="edge">
<title>src/components/layout/Header.jsx&#45;&gt;src/styles/Header.css</title>
<path fill="none" stroke="#000000" stroke-width="2" stroke-opacity="0.200000" d="M401.75,-103.1C416.97,-103.83 434.46,-107.69 444.75,-120 466.63,-146.18 433.09,-399.11 452.75,-427 485.42,-473.35 517.46,-456.65 571.75,-473 627.3,-489.73 662.12,-456.42 699.25,-501 715.83,-520.9 690.66,-714.1 707.25,-734 714.34,-742.5 725.02,-746.86 735.86,-748.94"/>
<polygon fill="#000000" fill-opacity="0.200000" stroke="#000000" stroke-width="2" stroke-opacity="0.200000" points="735.29,-750.98 741.53,-749.74 735.88,-746.83 735.29,-750.98"/>
</g>
<!-- src/components/layout/TopBar.jsx -->
<g id="node21" class="node">
<title>src/components/layout/TopBar.jsx</title>
<g id="a_node21"><a xlink:href="src/components/layout/TopBar.jsx" xlink:title="TopBar.jsx">
<path fill="#ffff77" stroke="black" d="M529.08,-114.62C529.08,-114.62 482.42,-114.62 482.42,-114.62 479.21,-114.62 476,-111.42 476,-108.21 476,-108.21 476,-101.79 476,-101.79 476,-98.58 479.21,-95.38 482.42,-95.38 482.42,-95.38 529.08,-95.38 529.08,-95.38 532.29,-95.38 535.5,-98.58 535.5,-101.79 535.5,-101.79 535.5,-108.21 535.5,-108.21 535.5,-111.42 532.29,-114.62 529.08,-114.62"/>
<text text-anchor="start" x="484" y="-102.08" font-family="Helvetica,sans-Serif" font-size="9.00">TopBar.jsx</text>
</a>
</g>
</g>
<!-- src/components/layout/Header.jsx&#45;&gt;src/components/layout/TopBar.jsx -->
<g id="edge13" class="edge">
<title>src/components/layout/Header.jsx&#45;&gt;src/components/layout/TopBar.jsx</title>
<path fill="none" stroke="#000000" stroke-width="2" stroke-opacity="0.200000" d="M401.75,-105C421,-105 446.32,-105 467.05,-105"/>
<polygon fill="#000000" fill-opacity="0.200000" stroke="#000000" stroke-width="2" stroke-opacity="0.200000" points="466.88,-107.1 472.88,-105 466.88,-102.9 466.88,-107.1"/>
</g>
<!-- src/components/Hero.jsx -->
<g id="node6" class="node">
<title>src/components/Hero.jsx</title>
<g id="a_node6"><a xlink:href="src/components/Hero.jsx" xlink:title="Hero.jsx">
<path fill="#ffff77" stroke="black" d="M391.96,-451.62C391.96,-451.62 350.79,-451.62 350.79,-451.62 347.58,-451.62 344.38,-448.42 344.38,-445.21 344.38,-445.21 344.38,-438.79 344.38,-438.79 344.38,-435.58 347.58,-432.38 350.79,-432.38 350.79,-432.38 391.96,-432.38 391.96,-432.38 395.17,-432.38 398.38,-435.58 398.38,-438.79 398.38,-438.79 398.38,-445.21 398.38,-445.21 398.38,-448.42 395.17,-451.62 391.96,-451.62"/>
<text text-anchor="start" x="354.5" y="-439.07" font-family="Helvetica,sans-Serif" font-size="9.00">Hero.jsx</text>
</a>
</g>
</g>
<!-- src/pages/PageHome.jsx&#45;&gt;src/components/Hero.jsx -->
<g id="edge24" class="edge">
<title>src/pages/PageHome.jsx&#45;&gt;src/components/Hero.jsx</title>
<path fill="none" stroke="#000000" stroke-width="2" stroke-opacity="0.200000" d="M252.09,-387.75C262.85,-389.7 273.86,-393.59 282,-401 290.94,-409.14 280.98,-418.95 290,-427 302.22,-437.9 319.75,-442.02 335.32,-443.26"/>
<polygon fill="#000000" fill-opacity="0.200000" stroke="#000000" stroke-width="2" stroke-opacity="0.200000" points="335.09,-445.35 341.18,-443.54 335.29,-441.16 335.09,-445.35"/>
</g>
<!-- src/components/categories/CategoryListFetch.jsx -->
<g id="node15" class="node">
<title>src/components/categories/CategoryListFetch.jsx</title>
<g id="a_node15"><a xlink:href="src/components/categories/CategoryListFetch.jsx" xlink:title="CategoryListFetch.jsx">
<path fill="#ffff77" stroke="black" d="M416.83,-396.62C416.83,-396.62 325.92,-396.62 325.92,-396.62 322.71,-396.62 319.5,-393.42 319.5,-390.21 319.5,-390.21 319.5,-383.79 319.5,-383.79 319.5,-380.58 322.71,-377.38 325.92,-377.38 325.92,-377.38 416.83,-377.38 416.83,-377.38 420.04,-377.38 423.25,-380.58 423.25,-383.79 423.25,-383.79 423.25,-390.21 423.25,-390.21 423.25,-393.42 420.04,-396.62 416.83,-396.62"/>
<text text-anchor="start" x="327.5" y="-384.07" font-family="Helvetica,sans-Serif" font-size="9.00">CategoryListFetch.jsx</text>
</a>
</g>
</g>
<!-- src/pages/PageHome.jsx&#45;&gt;src/components/categories/CategoryListFetch.jsx -->
<g id="edge22" class="edge">
<title>src/pages/PageHome.jsx&#45;&gt;src/components/categories/CategoryListFetch.jsx</title>
<path fill="none" stroke="#000000" stroke-width="2" stroke-opacity="0.200000" d="M252.23,-387C269.66,-387 290.77,-387 310.31,-387"/>
<polygon fill="#000000" fill-opacity="0.200000" stroke="#000000" stroke-width="2" stroke-opacity="0.200000" points="310.12,-389.1 316.12,-387 310.12,-384.9 310.12,-389.1"/>
</g>
<!-- src/components/filters/FiltersLayoutBasePages.jsx -->
<g id="node20" class="node">
<title>src/components/filters/FiltersLayoutBasePages.jsx</title>
<g id="a_node20"><a xlink:href="src/components/filters/FiltersLayoutBasePages.jsx" xlink:title="FiltersLayoutBasePages.jsx">
<path fill="#ffff77" stroke="black" d="M430.33,-487.62C430.33,-487.62 312.42,-487.62 312.42,-487.62 309.21,-487.62 306,-484.42 306,-481.21 306,-481.21 306,-474.79 306,-474.79 306,-471.58 309.21,-468.38 312.42,-468.38 312.42,-468.38 430.33,-468.38 430.33,-468.38 433.54,-468.38 436.75,-471.58 436.75,-474.79 436.75,-474.79 436.75,-481.21 436.75,-481.21 436.75,-484.42 433.54,-487.62 430.33,-487.62"/>
<text text-anchor="start" x="314" y="-475.07" font-family="Helvetica,sans-Serif" font-size="9.00">FiltersLayoutBasePages.jsx</text>
</a>
</g>
</g>
<!-- src/pages/PageHome.jsx&#45;&gt;src/components/filters/FiltersLayoutBasePages.jsx -->
<g id="edge23" class="edge">
<title>src/pages/PageHome.jsx&#45;&gt;src/components/filters/FiltersLayoutBasePages.jsx</title>
<path fill="none" stroke="#000000" stroke-width="2" stroke-opacity="0.200000" d="M252.21,-386.8C263.23,-388.66 274.36,-392.74 282,-401 301.16,-421.72 270.51,-443.59 290,-464 292.34,-466.45 294.94,-468.56 297.74,-470.38"/>
<polygon fill="#000000" fill-opacity="0.200000" stroke="#000000" stroke-width="2" stroke-opacity="0.200000" points="296.59,-472.15 302.88,-473.12 298.57,-468.44 296.59,-472.15"/>
</g>
<!-- src/components/layout/LayoutBasePages.jsx -->
<g id="node22" class="node">
<title>src/components/layout/LayoutBasePages.jsx</title>
<g id="a_node22"><a xlink:href="src/components/layout/LayoutBasePages.jsx" xlink:title="LayoutBasePages.jsx">
<path fill="#ffff77" stroke="black" d="M417.58,-145.62C417.58,-145.62 325.17,-145.62 325.17,-145.62 321.96,-145.62 318.75,-142.42 318.75,-139.21 318.75,-139.21 318.75,-132.79 318.75,-132.79 318.75,-129.58 321.96,-126.38 325.17,-126.38 325.17,-126.38 417.58,-126.38 417.58,-126.38 420.79,-126.38 424,-129.58 424,-132.79 424,-132.79 424,-139.21 424,-139.21 424,-142.42 420.79,-145.62 417.58,-145.62"/>
<text text-anchor="start" x="326.75" y="-133.07" font-family="Helvetica,sans-Serif" font-size="9.00">LayoutBasePages.jsx</text>
</a>
</g>
</g>
<!-- src/pages/PageHome.jsx&#45;&gt;src/components/layout/LayoutBasePages.jsx -->
<g id="edge25" class="edge">
<title>src/pages/PageHome.jsx&#45;&gt;src/components/layout/LayoutBasePages.jsx</title>
<path fill="none" stroke="#000000" stroke-width="2" stroke-opacity="0.200000" d="M252.3,-386.65C263.34,-384.63 274.44,-380.38 282,-372 292.34,-360.54 285.7,-317.83 290,-303 306.7,-245.37 341.71,-183.09 359.5,-153.51"/>
<polygon fill="#000000" fill-opacity="0.200000" stroke="#000000" stroke-width="2" stroke-opacity="0.200000" points="361.13,-154.87 362.46,-148.65 357.55,-152.69 361.13,-154.87"/>
</g>
<!-- src/components/listings/ListingsFetchWrapper.jsx -->
<g id="node25" class="node">
<title>src/components/listings/ListingsFetchWrapper.jsx</title>
<g id="a_node25"><a xlink:href="src/components/listings/ListingsFetchWrapper.jsx" xlink:title="ListingsFetchWrapper.jsx">
<path fill="#ffff77" stroke="black" d="M425.08,-51.62C425.08,-51.62 317.67,-51.62 317.67,-51.62 314.46,-51.62 311.25,-48.42 311.25,-45.21 311.25,-45.21 311.25,-38.79 311.25,-38.79 311.25,-35.58 314.46,-32.38 317.67,-32.38 317.67,-32.38 425.08,-32.38 425.08,-32.38 428.29,-32.38 431.5,-35.58 431.5,-38.79 431.5,-38.79 431.5,-45.21 431.5,-45.21 431.5,-48.42 428.29,-51.62 425.08,-51.62"/>
<text text-anchor="start" x="319.25" y="-39.08" font-family="Helvetica,sans-Serif" font-size="9.00">ListingsFetchWrapper.jsx</text>
</a>
</g>
</g>
<!-- src/pages/PageHome.jsx&#45;&gt;src/components/listings/ListingsFetchWrapper.jsx -->
<g id="edge26" class="edge">
<title>src/pages/PageHome.jsx&#45;&gt;src/components/listings/ListingsFetchWrapper.jsx</title>
<path fill="none" stroke="#000000" stroke-width="2" stroke-opacity="0.200000" d="M252.05,-387.16C263.34,-385.22 274.66,-380.89 282,-372 302.38,-347.31 273.04,-111.15 290,-84 298.09,-71.05 311.58,-61.89 325.23,-55.5"/>
<polygon fill="#000000" fill-opacity="0.200000" stroke="#000000" stroke-width="2" stroke-opacity="0.200000" points="325.78,-57.55 330.46,-53.25 324.11,-53.69 325.78,-57.55"/>
</g>
<!-- src/pages/PageListingsCategory.jsx&#45;&gt;src/components/Hero.jsx -->
<g id="edge28" class="edge">
<title>src/pages/PageListingsCategory.jsx&#45;&gt;src/components/Hero.jsx</title>
<path fill="none" stroke="#000000" stroke-width="2" stroke-opacity="0.200000" d="M274.32,-364.63C277.12,-366.43 279.72,-368.53 282,-371 299.08,-389.45 272.6,-408.85 290,-427 301.52,-439.02 319.35,-443.17 335.3,-444.15"/>
<polygon fill="#000000" fill-opacity="0.200000" stroke="#000000" stroke-width="2" stroke-opacity="0.200000" points="334.83,-446.24 340.88,-444.31 334.95,-442.04 334.83,-446.24"/>
</g>
<!-- src/pages/PageListingsCategory.jsx&#45;&gt;src/components/filters/FiltersLayoutBasePages.jsx -->
<g id="edge27" class="edge">
<title>src/pages/PageListingsCategory.jsx&#45;&gt;src/components/filters/FiltersLayoutBasePages.jsx</title>
<path fill="none" stroke="#000000" stroke-width="2" stroke-opacity="0.200000" d="M274.49,-364.48C277.25,-366.32 279.79,-368.47 282,-371 295.66,-386.61 275.98,-448.71 290,-464 292.34,-466.55 294.96,-468.74 297.8,-470.62"/>
<polygon fill="#000000" fill-opacity="0.200000" stroke="#000000" stroke-width="2" stroke-opacity="0.200000" points="296.8,-472.47 303.08,-473.46 298.78,-468.77 296.8,-472.47"/>
</g>
<!-- src/pages/PageListingsCategory.jsx&#45;&gt;src/components/layout/LayoutBasePages.jsx -->
<g id="edge29" class="edge">
<title>src/pages/PageListingsCategory.jsx&#45;&gt;src/components/layout/LayoutBasePages.jsx</title>
<path fill="none" stroke="#000000" stroke-width="2" stroke-opacity="0.200000" d="M274.43,-347.93C277.17,-346.25 279.72,-344.29 282,-342 294.5,-329.47 284.34,-319.77 290,-303 309.28,-245.87 343.4,-182.9 360.3,-153.25"/>
<polygon fill="#000000" fill-opacity="0.200000" stroke="#000000" stroke-width="2" stroke-opacity="0.200000" points="361.91,-154.67 363.08,-148.43 358.27,-152.58 361.91,-154.67"/>
</g>
<!-- src/pages/PageListingsCategory.jsx&#45;&gt;src/components/listings/ListingsFetchWrapper.jsx -->
<g id="edge30" class="edge">
<title>src/pages/PageListingsCategory.jsx&#45;&gt;src/components/listings/ListingsFetchWrapper.jsx</title>
<path fill="none" stroke="#000000" stroke-width="2" stroke-opacity="0.200000" d="M214.54,-346.09C215.21,-307.82 222.36,-167.64 290,-84 300.18,-71.41 315.15,-62.16 329.42,-55.6"/>
<polygon fill="#000000" fill-opacity="0.200000" stroke="#000000" stroke-width="2" stroke-opacity="0.200000" points="330.23,-57.53 334.91,-53.23 328.57,-53.67 330.23,-57.53"/>
</g>
<!-- src/components/Hero copy.jsx -->
<g id="node5" class="node">
<title>src/components/Hero copy.jsx</title>
<g id="a_node5"><a xlink:href="src/components/Hero copy.jsx" xlink:title="no&#45;orphans">
<path fill="#ccffcc" stroke="orange" d="M400.33,-542.62C400.33,-542.62 342.42,-542.62 342.42,-542.62 339.21,-542.62 336,-539.42 336,-536.21 336,-536.21 336,-529.79 336,-529.79 336,-526.58 339.21,-523.38 342.42,-523.38 342.42,-523.38 400.33,-523.38 400.33,-523.38 403.54,-523.38 406.75,-526.58 406.75,-529.79 406.75,-529.79 406.75,-536.21 406.75,-536.21 406.75,-539.42 403.54,-542.62 400.33,-542.62"/>
<text text-anchor="start" x="344" y="-530.08" font-family="Helvetica,sans-Serif" font-size="9.00" fill="orange">Hero copy.jsx</text>
</a>
</g>
</g>
<!-- src/styles/Hero.css -->
<g id="node7" class="node">
<title>src/styles/Hero.css</title>
<g id="a_node7"><a xlink:href="src/styles/Hero.css" xlink:title="Hero.css">
<path fill="#ffffcc" stroke="black" d="M797.46,-820.62C797.46,-820.62 756.29,-820.62 756.29,-820.62 753.08,-820.62 749.88,-817.42 749.88,-814.21 749.88,-814.21 749.88,-807.79 749.88,-807.79 749.88,-804.58 753.08,-801.38 756.29,-801.38 756.29,-801.38 797.46,-801.38 797.46,-801.38 800.67,-801.38 803.88,-804.58 803.88,-807.79 803.88,-807.79 803.88,-814.21 803.88,-814.21 803.88,-817.42 800.67,-820.62 797.46,-820.62"/>
<text text-anchor="start" x="758.12" y="-808.08" font-family="Helvetica,sans-Serif" font-size="9.00">Hero.css</text>
</a>
</g>
</g>
<!-- src/components/Hero.jsx&#45;&gt;src/styles/Hero.css -->
<g id="edge4" class="edge">
<title>src/components/Hero.jsx&#45;&gt;src/styles/Hero.css</title>
<path fill="none" stroke="#000000" stroke-width="2" stroke-opacity="0.200000" d="M398.66,-440.5C414.21,-441.11 433.09,-444.72 444.75,-457 460.85,-473.96 440.71,-488.96 452.75,-509 523.17,-626.18 633.28,-573.26 699.25,-693 710.33,-713.11 692.17,-778.69 707.25,-796 715.56,-805.55 728.42,-809.82 740.77,-811.52"/>
<polygon fill="#000000" fill-opacity="0.200000" stroke="#000000" stroke-width="2" stroke-opacity="0.200000" points="740.41,-813.6 746.58,-812.06 740.8,-809.41 740.41,-813.6"/>
</g>
<!-- src/components/Hero2.jsx -->
<g id="node8" class="node">
<title>src/components/Hero2.jsx</title>
<g id="a_node8"><a xlink:href="src/components/Hero2.jsx" xlink:title="no&#45;orphans">
<path fill="#ccffcc" stroke="orange" d="M392.46,-633.62C392.46,-633.62 350.29,-633.62 350.29,-633.62 347.08,-633.62 343.88,-630.42 343.88,-627.21 343.88,-627.21 343.88,-620.79 343.88,-620.79 343.88,-617.58 347.08,-614.38 350.29,-614.38 350.29,-614.38 392.46,-614.38 392.46,-614.38 395.67,-614.38 398.88,-617.58 398.88,-620.79 398.88,-620.79 398.88,-627.21 398.88,-627.21 398.88,-630.42 395.67,-633.62 392.46,-633.62"/>
<text text-anchor="start" x="351.88" y="-621.08" font-family="Helvetica,sans-Serif" font-size="9.00" fill="orange">Hero2.jsx</text>
</a>
</g>
</g>
<!-- src/components/UI/AdImgCarousel.jsx -->
<g id="node9" class="node">
<title>src/components/UI/AdImgCarousel.jsx</title>
<g id="a_node9"><a xlink:href="src/components/UI/AdImgCarousel.jsx" xlink:title="AdImgCarousel.jsx">
<path fill="#ffff77" stroke="black" d="M411.96,-578.62C411.96,-578.62 330.79,-578.62 330.79,-578.62 327.58,-578.62 324.38,-575.42 324.38,-572.21 324.38,-572.21 324.38,-565.79 324.38,-565.79 324.38,-562.58 327.58,-559.38 330.79,-559.38 330.79,-559.38 411.96,-559.38 411.96,-559.38 415.17,-559.38 418.38,-562.58 418.38,-565.79 418.38,-565.79 418.38,-572.21 418.38,-572.21 418.38,-575.42 415.17,-578.62 411.96,-578.62"/>
<text text-anchor="start" x="332.38" y="-566.08" font-family="Helvetica,sans-Serif" font-size="9.00">AdImgCarousel.jsx</text>
</a>
</g>
</g>
<!-- src/styles/AdImgCarousel.css -->
<g id="node10" class="node">
<title>src/styles/AdImgCarousel.css</title>
<g id="a_node10"><a xlink:href="src/styles/AdImgCarousel.css" xlink:title="AdImgCarousel.css">
<path fill="#ffffcc" stroke="black" d="M819.33,-851.62C819.33,-851.62 734.42,-851.62 734.42,-851.62 731.21,-851.62 728,-848.42 728,-845.21 728,-845.21 728,-838.79 728,-838.79 728,-835.58 731.21,-832.38 734.42,-832.38 734.42,-832.38 819.33,-832.38 819.33,-832.38 822.54,-832.38 825.75,-835.58 825.75,-838.79 825.75,-838.79 825.75,-845.21 825.75,-845.21 825.75,-848.42 822.54,-851.62 819.33,-851.62"/>
<text text-anchor="start" x="736" y="-839.08" font-family="Helvetica,sans-Serif" font-size="9.00">AdImgCarousel.css</text>
</a>
</g>
</g>
<!-- src/components/UI/AdImgCarousel.jsx&#45;&gt;src/styles/AdImgCarousel.css -->
<g id="edge5" class="edge">
<title>src/components/UI/AdImgCarousel.jsx&#45;&gt;src/styles/AdImgCarousel.css</title>
<path fill="none" stroke="#000000" stroke-width="2" stroke-opacity="0.200000" d="M418.71,-568.98C428.58,-571.21 438.04,-575.44 444.75,-583 461.31,-601.67 435.01,-677.45 452.75,-695 491.76,-733.6 660.3,-671.34 699.25,-710 717.75,-728.36 690.22,-807.27 707.25,-827 710.67,-830.96 714.87,-834.02 719.5,-836.36"/>
<polygon fill="#000000" fill-opacity="0.200000" stroke="#000000" stroke-width="2" stroke-opacity="0.200000" points="718.47,-838.21 724.82,-838.52 720.05,-834.32 718.47,-838.21"/>
</g>
<!-- src/components/buttons/AddBtn.jsx&#45;&gt;src/styles/Header.css -->
<g id="edge6" class="edge">
<title>src/components/buttons/AddBtn.jsx&#45;&gt;src/styles/Header.css</title>
<path fill="none" stroke="#000000" stroke-width="2" stroke-opacity="0.200000" d="M535.41,-231.94C544.2,-234.02 553.05,-237.89 558.75,-245 587.73,-281.12 542.14,-417.39 571.75,-453 609.1,-497.92 662.58,-439.52 699.25,-485 716.62,-506.55 689.55,-712.72 707.25,-734 714.33,-742.51 725.01,-746.87 735.85,-748.95"/>
<polygon fill="#000000" fill-opacity="0.200000" stroke="#000000" stroke-width="2" stroke-opacity="0.200000" points="735.28,-750.99 741.52,-749.75 735.87,-746.84 735.28,-750.99"/>
</g>
<!-- src/components/buttons/DeleteBtn.jsx -->
<g id="node13" class="node">
<title>src/components/buttons/DeleteBtn.jsx</title>
<g id="a_node13"><a xlink:href="src/components/buttons/DeleteBtn.jsx" xlink:title="DeleteBtn.jsx">
<path fill="#ffff77" stroke="black" d="M534.33,-208.62C534.33,-208.62 477.17,-208.62 477.17,-208.62 473.96,-208.62 470.75,-205.42 470.75,-202.21 470.75,-202.21 470.75,-195.79 470.75,-195.79 470.75,-192.58 473.96,-189.38 477.17,-189.38 477.17,-189.38 534.33,-189.38 534.33,-189.38 537.54,-189.38 540.75,-192.58 540.75,-195.79 540.75,-195.79 540.75,-202.21 540.75,-202.21 540.75,-205.42 537.54,-208.62 534.33,-208.62"/>
<text text-anchor="start" x="478.75" y="-196.07" font-family="Helvetica,sans-Serif" font-size="9.00">DeleteBtn.jsx</text>
</a>
</g>
</g>
<!-- src/components/buttons/DeleteBtn.jsx&#45;&gt;src/styles/Header.css -->
<g id="edge7" class="edge">
<title>src/components/buttons/DeleteBtn.jsx&#45;&gt;src/styles/Header.css</title>
<path fill="none" stroke="#000000" stroke-width="2" stroke-opacity="0.200000" d="M541.1,-202.55C547.89,-204.84 554.29,-208.43 558.75,-214 588.4,-251.01 540.78,-391.08 571.75,-427 609.57,-470.87 662.14,-409.52 699.25,-454 719.19,-477.9 687.39,-710.04 707.25,-734 714.31,-742.52 724.99,-746.88 735.83,-748.97"/>
<polygon fill="#000000" fill-opacity="0.200000" stroke="#000000" stroke-width="2" stroke-opacity="0.200000" points="735.27,-751.01 741.5,-749.77 735.85,-746.85 735.27,-751.01"/>
</g>
<!-- src/components/buttons/Submit.jsx -->
<g id="node14" class="node">
<title>src/components/buttons/Submit.jsx</title>
<g id="a_node14"><a xlink:href="src/components/buttons/Submit.jsx" xlink:title="no&#45;orphans">
<path fill="#ccffcc" stroke="orange" d="M528.71,-270.62C528.71,-270.62 482.79,-270.62 482.79,-270.62 479.58,-270.62 476.38,-267.42 476.38,-264.21 476.38,-264.21 476.38,-257.79 476.38,-257.79 476.38,-254.58 479.58,-251.38 482.79,-251.38 482.79,-251.38 528.71,-251.38 528.71,-251.38 531.92,-251.38 535.12,-254.58 535.12,-257.79 535.12,-257.79 535.12,-264.21 535.12,-264.21 535.12,-267.42 531.92,-270.62 528.71,-270.62"/>
<text text-anchor="start" x="484.38" y="-258.07" font-family="Helvetica,sans-Serif" font-size="9.00" fill="orange">Submit.jsx</text>
</a>
</g>
</g>
<!-- src/components/categories/CategoryListLiMap.jsx -->
<g id="node16" class="node">
<title>src/components/categories/CategoryListLiMap.jsx</title>
<g id="a_node16"><a xlink:href="src/components/categories/CategoryListLiMap.jsx" xlink:title="CategoryListLiMap.jsx">
<path fill="#ffff77" stroke="black" d="M552.33,-396.62C552.33,-396.62 459.17,-396.62 459.17,-396.62 455.96,-396.62 452.75,-393.42 452.75,-390.21 452.75,-390.21 452.75,-383.79 452.75,-383.79 452.75,-380.58 455.96,-377.38 459.17,-377.38 459.17,-377.38 552.33,-377.38 552.33,-377.38 555.54,-377.38 558.75,-380.58 558.75,-383.79 558.75,-383.79 558.75,-390.21 558.75,-390.21 558.75,-393.42 555.54,-396.62 552.33,-396.62"/>
<text text-anchor="start" x="460.75" y="-384.07" font-family="Helvetica,sans-Serif" font-size="9.00">CategoryListLiMap.jsx</text>
</a>
</g>
</g>
<!-- src/components/categories/CategoryListFetch.jsx&#45;&gt;src/components/categories/CategoryListLiMap.jsx -->
<g id="edge8" class="edge">
<title>src/components/categories/CategoryListFetch.jsx&#45;&gt;src/components/categories/CategoryListLiMap.jsx</title>
<path fill="none" stroke="#000000" stroke-width="2" stroke-opacity="0.200000" d="M423.55,-387C430.06,-387 436.76,-387 443.4,-387"/>
<polygon fill="#000000" fill-opacity="0.200000" stroke="#000000" stroke-width="2" stroke-opacity="0.200000" points="443.37,-389.1 449.37,-387 443.37,-384.9 443.37,-389.1"/>
</g>
<!-- src/components/categories/CategoryListForLiMap.jsx -->
<g id="node17" class="node">
<title>src/components/categories/CategoryListForLiMap.jsx</title>
<g id="a_node17"><a xlink:href="src/components/categories/CategoryListForLiMap.jsx" xlink:title="CategoryListForLiMap.jsx">
<path fill="#ffff77" stroke="black" d="M684.83,-396.62C684.83,-396.62 578.17,-396.62 578.17,-396.62 574.96,-396.62 571.75,-393.42 571.75,-390.21 571.75,-390.21 571.75,-383.79 571.75,-383.79 571.75,-380.58 574.96,-377.38 578.17,-377.38 578.17,-377.38 684.83,-377.38 684.83,-377.38 688.04,-377.38 691.25,-380.58 691.25,-383.79 691.25,-383.79 691.25,-390.21 691.25,-390.21 691.25,-393.42 688.04,-396.62 684.83,-396.62"/>
<text text-anchor="start" x="579.75" y="-384.07" font-family="Helvetica,sans-Serif" font-size="9.00">CategoryListForLiMap.jsx</text>
</a>
</g>
</g>
<!-- src/components/categories/CategoryListLiMap.jsx&#45;&gt;src/components/categories/CategoryListForLiMap.jsx -->
<g id="edge10" class="edge">
<title>src/components/categories/CategoryListLiMap.jsx&#45;&gt;src/components/categories/CategoryListForLiMap.jsx</title>
<path fill="none" stroke="#000000" stroke-width="2" stroke-opacity="0.200000" d="M559.23,-387C560.38,-387 561.53,-387 562.69,-387"/>
<polygon fill="#000000" fill-opacity="0.200000" stroke="#000000" stroke-width="2" stroke-opacity="0.200000" points="562.55,-389.1 568.55,-387 562.55,-384.9 562.55,-389.1"/>
</g>
<!-- src/styles/CategoryListForLiMap.css -->
<g id="node18" class="node">
<title>src/styles/CategoryListForLiMap.css</title>
<g id="a_node18"><a xlink:href="src/styles/CategoryListForLiMap.css" xlink:title="CategoryListForLiMap.css">
<path fill="#ffffcc" stroke="black" d="M832.08,-727.62C832.08,-727.62 721.67,-727.62 721.67,-727.62 718.46,-727.62 715.25,-724.42 715.25,-721.21 715.25,-721.21 715.25,-714.79 715.25,-714.79 715.25,-711.58 718.46,-708.38 721.67,-708.38 721.67,-708.38 832.08,-708.38 832.08,-708.38 835.29,-708.38 838.5,-711.58 838.5,-714.79 838.5,-714.79 838.5,-721.21 838.5,-721.21 838.5,-724.42 835.29,-727.62 832.08,-727.62"/>
<text text-anchor="start" x="723.25" y="-715.08" font-family="Helvetica,sans-Serif" font-size="9.00">CategoryListForLiMap.css</text>
</a>
</g>
</g>
<!-- src/components/categories/CategoryListForLiMap.jsx&#45;&gt;src/styles/CategoryListForLiMap.css -->
<g id="edge9" class="edge">
<title>src/components/categories/CategoryListForLiMap.jsx&#45;&gt;src/styles/CategoryListForLiMap.css</title>
<path fill="none" stroke="#000000" stroke-width="2" stroke-opacity="0.200000" d="M648.65,-396.98C663.89,-407.22 686.27,-424.51 699.25,-445 752.98,-529.84 769.73,-652.81 774.32,-699.28"/>
<polygon fill="#000000" fill-opacity="0.200000" stroke="#000000" stroke-width="2" stroke-opacity="0.200000" points="772.21,-699.2 774.85,-704.98 776.39,-698.81 772.21,-699.2"/>
</g>
<!-- src/components/fff.jsx -->
<g id="node19" class="node">
<title>src/components/fff.jsx</title>
<g id="a_node19"><a xlink:href="src/components/fff.jsx" xlink:title="no&#45;orphans">
<path fill="#ccffcc" stroke="orange" d="M391.96,-664.62C391.96,-664.62 350.79,-664.62 350.79,-664.62 347.58,-664.62 344.38,-661.42 344.38,-658.21 344.38,-658.21 344.38,-651.79 344.38,-651.79 344.38,-648.58 347.58,-645.38 350.79,-645.38 350.79,-645.38 391.96,-645.38 391.96,-645.38 395.17,-645.38 398.38,-648.58 398.38,-651.79 398.38,-651.79 398.38,-658.21 398.38,-658.21 398.38,-661.42 395.17,-664.62 391.96,-664.62"/>
<text text-anchor="start" x="361.25" y="-652.08" font-family="Helvetica,sans-Serif" font-size="9.00" fill="orange">fff.jsx</text>
</a>
</g>
</g>
<!-- src/styles/LayoutBasePages.css -->
<g id="node23" class="node">
<title>src/styles/LayoutBasePages.css</title>
<g id="a_node23"><a xlink:href="src/styles/LayoutBasePages.css" xlink:title="LayoutBasePages.css">
<path fill="#ffffcc" stroke="black" d="M824.96,-789.62C824.96,-789.62 728.79,-789.62 728.79,-789.62 725.58,-789.62 722.38,-786.42 722.38,-783.21 722.38,-783.21 722.38,-776.79 722.38,-776.79 722.38,-773.58 725.58,-770.38 728.79,-770.38 728.79,-770.38 824.96,-770.38 824.96,-770.38 828.17,-770.38 831.38,-773.58 831.38,-776.79 831.38,-776.79 831.38,-783.21 831.38,-783.21 831.38,-786.42 828.17,-789.62 824.96,-789.62"/>
<text text-anchor="start" x="730.38" y="-777.08" font-family="Helvetica,sans-Serif" font-size="9.00">LayoutBasePages.css</text>
</a>
</g>
</g>
<!-- src/components/layout/LayoutBasePages.jsx&#45;&gt;src/styles/LayoutBasePages.css -->
<g id="edge14" class="edge">
<title>src/components/layout/LayoutBasePages.jsx&#45;&gt;src/styles/LayoutBasePages.css</title>
<path fill="none" stroke="#000000" stroke-width="2" stroke-opacity="0.200000" d="M378.29,-146.11C392.79,-171.46 429.97,-240.26 444.75,-303 448.55,-319.14 442.67,-438.84 452.75,-452 486.6,-496.18 517.59,-478.19 571.75,-491 599.63,-497.6 680.21,-488.6 699.25,-510 718.09,-531.18 689.13,-743.2 707.25,-765 709.36,-767.54 711.8,-769.71 714.46,-771.56"/>
<polygon fill="#000000" fill-opacity="0.200000" stroke="#000000" stroke-width="2" stroke-opacity="0.200000" points="713.07,-773.2 719.34,-774.28 715.12,-769.53 713.07,-773.2"/>
</g>
<!-- src/components/listings/ListingForLi.jsx -->
<g id="node24" class="node">
<title>src/components/listings/ListingForLi.jsx</title>
<g id="a_node24"><a xlink:href="src/components/listings/ListingForLi.jsx" xlink:title="ListingForLi.jsx">
<path fill="#ffff77" stroke="black" d="M809.58,-51.62C809.58,-51.62 744.17,-51.62 744.17,-51.62 740.96,-51.62 737.75,-48.42 737.75,-45.21 737.75,-45.21 737.75,-38.79 737.75,-38.79 737.75,-35.58 740.96,-32.38 744.17,-32.38 744.17,-32.38 809.58,-32.38 809.58,-32.38 812.79,-32.38 816,-35.58 816,-38.79 816,-38.79 816,-45.21 816,-45.21 816,-48.42 812.79,-51.62 809.58,-51.62"/>
<text text-anchor="start" x="745.75" y="-39.08" font-family="Helvetica,sans-Serif" font-size="9.00">ListingForLi.jsx</text>
</a>
</g>
</g>
<!-- src/components/listings/ListingsListFetch.jsx -->
<g id="node26" class="node">
<title>src/components/listings/ListingsListFetch.jsx</title>
<g id="a_node26"><a xlink:href="src/components/listings/ListingsListFetch.jsx" xlink:title="ListingsListFetch.jsx">
<path fill="#ffff77" stroke="black" d="M549.33,-51.62C549.33,-51.62 462.17,-51.62 462.17,-51.62 458.96,-51.62 455.75,-48.42 455.75,-45.21 455.75,-45.21 455.75,-38.79 455.75,-38.79 455.75,-35.58 458.96,-32.38 462.17,-32.38 462.17,-32.38 549.33,-32.38 549.33,-32.38 552.54,-32.38 555.75,-35.58 555.75,-38.79 555.75,-38.79 555.75,-45.21 555.75,-45.21 555.75,-48.42 552.54,-51.62 549.33,-51.62"/>
<text text-anchor="start" x="463.75" y="-39.08" font-family="Helvetica,sans-Serif" font-size="9.00">ListingsListFetch.jsx</text>
</a>
</g>
</g>
<!-- src/components/listings/ListingsFetchWrapper.jsx&#45;&gt;src/components/listings/ListingsListFetch.jsx -->
<g id="edge15" class="edge">
<title>src/components/listings/ListingsFetchWrapper.jsx&#45;&gt;src/components/listings/ListingsListFetch.jsx</title>
<path fill="none" stroke="#000000" stroke-width="2" stroke-opacity="0.200000" d="M431.98,-42C436.87,-42 441.81,-42 446.68,-42"/>
<polygon fill="#000000" fill-opacity="0.200000" stroke="#000000" stroke-width="2" stroke-opacity="0.200000" points="446.35,-44.1 452.35,-42 446.35,-39.9 446.35,-44.1"/>
</g>
<!-- src/components/listings/ListingsList.jsx -->
<g id="node27" class="node">
<title>src/components/listings/ListingsList.jsx</title>
<g id="a_node27"><a xlink:href="src/components/listings/ListingsList.jsx" xlink:title="ListingsList.jsx">
<path fill="#ffff77" stroke="black" d="M663.83,-51.62C663.83,-51.62 599.17,-51.62 599.17,-51.62 595.96,-51.62 592.75,-48.42 592.75,-45.21 592.75,-45.21 592.75,-38.79 592.75,-38.79 592.75,-35.58 595.96,-32.38 599.17,-32.38 599.17,-32.38 663.83,-32.38 663.83,-32.38 667.04,-32.38 670.25,-35.58 670.25,-38.79 670.25,-38.79 670.25,-45.21 670.25,-45.21 670.25,-48.42 667.04,-51.62 663.83,-51.62"/>
<text text-anchor="start" x="600.75" y="-39.08" font-family="Helvetica,sans-Serif" font-size="9.00">ListingsList.jsx</text>
</a>
</g>
</g>
<!-- src/components/listings/ListingsListFetch.jsx&#45;&gt;src/components/listings/ListingsList.jsx -->
<g id="edge17" class="edge">
<title>src/components/listings/ListingsListFetch.jsx&#45;&gt;src/components/listings/ListingsList.jsx</title>
<path fill="none" stroke="#000000" stroke-width="2" stroke-opacity="0.200000" d="M556.01,-42C565.11,-42 574.59,-42 583.62,-42"/>
<polygon fill="#000000" fill-opacity="0.200000" stroke="#000000" stroke-width="2" stroke-opacity="0.200000" points="583.44,-44.1 589.44,-42 583.44,-39.9 583.44,-44.1"/>
</g>
<!-- src/components/listings/ListingsList.jsx&#45;&gt;src/components/listings/ListingForLi.jsx -->
<g id="edge16" class="edge">
<title>src/components/listings/ListingsList.jsx&#45;&gt;src/components/listings/ListingForLi.jsx</title>
<path fill="none" stroke="#000000" stroke-width="2" stroke-opacity="0.200000" d="M670.55,-42C688.37,-42 709.78,-42 728.63,-42"/>
<polygon fill="#000000" fill-opacity="0.200000" stroke="#000000" stroke-width="2" stroke-opacity="0.200000" points="728.62,-44.1 734.62,-42 728.62,-39.9 728.62,-44.1"/>
</g>
<!-- src/components/towns/TownPageLi.jsx -->
<g id="node28" class="node">
<title>src/components/towns/TownPageLi.jsx</title>
<g id="a_node28"><a xlink:href="src/components/towns/TownPageLi.jsx" xlink:title="TownPageLi.jsx">
<path fill="#ffff77" stroke="black" d="M539.96,-333.62C539.96,-333.62 471.54,-333.62 471.54,-333.62 468.33,-333.62 465.12,-330.42 465.12,-327.21 465.12,-327.21 465.12,-320.79 465.12,-320.79 465.12,-317.58 468.33,-314.38 471.54,-314.38 471.54,-314.38 539.96,-314.38 539.96,-314.38 543.17,-314.38 546.38,-317.58 546.38,-320.79 546.38,-320.79 546.38,-327.21 546.38,-327.21 546.38,-330.42 543.17,-333.62 539.96,-333.62"/>
<text text-anchor="start" x="473.12" y="-321.07" font-family="Helvetica,sans-Serif" font-size="9.00">TownPageLi.jsx</text>
</a>
</g>
</g>
<!-- src/components/towns/TownsList.jsx -->
<g id="node29" class="node">
<title>src/components/towns/TownsList.jsx</title>
<g id="a_node29"><a xlink:href="src/components/towns/TownsList.jsx" xlink:title="TownsList.jsx">
<path fill="#ffff77" stroke="black" d="M401.08,-333.62C401.08,-333.62 341.67,-333.62 341.67,-333.62 338.46,-333.62 335.25,-330.42 335.25,-327.21 335.25,-327.21 335.25,-320.79 335.25,-320.79 335.25,-317.58 338.46,-314.38 341.67,-314.38 341.67,-314.38 401.08,-314.38 401.08,-314.38 404.29,-314.38 407.5,-317.58 407.5,-320.79 407.5,-320.79 407.5,-327.21 407.5,-327.21 407.5,-330.42 404.29,-333.62 401.08,-333.62"/>
<text text-anchor="start" x="343.25" y="-321.07" font-family="Helvetica,sans-Serif" font-size="9.00">TownsList.jsx</text>
</a>
</g>
</g>
<!-- src/components/towns/TownsList.jsx&#45;&gt;src/components/towns/TownPageLi.jsx -->
<g id="edge18" class="edge">
<title>src/components/towns/TownsList.jsx&#45;&gt;src/components/towns/TownPageLi.jsx</title>
<path fill="none" stroke="#000000" stroke-width="2" stroke-opacity="0.200000" d="M407.85,-324C422.71,-324 440.23,-324 456.25,-324"/>
<polygon fill="#000000" fill-opacity="0.200000" stroke="#000000" stroke-width="2" stroke-opacity="0.200000" points="455.95,-326.1 461.95,-324 455.95,-321.9 455.95,-326.1"/>
</g>
<!-- src/main.jsx -->
<g id="node30" class="node">
<title>src/main.jsx</title>
<g id="a_node30"><a xlink:href="src/main.jsx" xlink:title="main.jsx">
<path fill="#ffff77" stroke="black" d="M63.58,-882.62C63.58,-882.62 22.42,-882.62 22.42,-882.62 19.21,-882.62 16,-879.42 16,-876.21 16,-876.21 16,-869.79 16,-869.79 16,-866.58 19.21,-863.38 22.42,-863.38 22.42,-863.38 63.58,-863.38 63.58,-863.38 66.79,-863.38 70,-866.58 70,-869.79 70,-869.79 70,-876.21 70,-876.21 70,-879.42 66.79,-882.62 63.58,-882.62"/>
<text text-anchor="start" x="25.75" y="-870.08" font-family="Helvetica,sans-Serif" font-size="9.00">main.jsx</text>
</a>
</g>
</g>
<!-- src/main.jsx&#45;&gt;src/App.jsx -->
<g id="edge19" class="edge">
<title>src/main.jsx&#45;&gt;src/App.jsx</title>
<path fill="none" stroke="#000000" stroke-width="2" stroke-opacity="0.200000" d="M45.3,-862.97C53.29,-801.23 95.85,-472.54 106.56,-389.88"/>
<polygon fill="#000000" fill-opacity="0.200000" stroke="#000000" stroke-width="2" stroke-opacity="0.200000" points="108.62,-390.27 107.31,-384.05 104.46,-389.73 108.62,-390.27"/>
</g>
<!-- src/styles/global.css -->
<g id="node31" class="node">
<title>src/styles/global.css</title>
<g id="a_node31"><a xlink:href="src/styles/global.css" xlink:title="global.css">
<path fill="#ffffcc" stroke="black" d="M799.83,-882.62C799.83,-882.62 753.92,-882.62 753.92,-882.62 750.71,-882.62 747.5,-879.42 747.5,-876.21 747.5,-876.21 747.5,-869.79 747.5,-869.79 747.5,-866.58 750.71,-863.38 753.92,-863.38 753.92,-863.38 799.83,-863.38 799.83,-863.38 803.04,-863.38 806.25,-866.58 806.25,-869.79 806.25,-869.79 806.25,-876.21 806.25,-876.21 806.25,-879.42 803.04,-882.62 799.83,-882.62"/>
<text text-anchor="start" x="755.5" y="-870.08" font-family="Helvetica,sans-Serif" font-size="9.00">global.css</text>
</a>
</g>
</g>
<!-- src/main.jsx&#45;&gt;src/styles/global.css -->
<g id="edge20" class="edge">
<title>src/main.jsx&#45;&gt;src/styles/global.css</title>
<path fill="none" stroke="#000000" stroke-width="2" stroke-opacity="0.200000" d="M70.27,-873C103.42,-873 162.18,-873 212.5,-873 212.5,-873 212.5,-873 506.75,-873 589.39,-873 686.31,-873 738.33,-873"/>
<polygon fill="#000000" fill-opacity="0.200000" stroke="#000000" stroke-width="2" stroke-opacity="0.200000" points="738.17,-875.1 744.17,-873 738.17,-870.9 738.17,-875.1"/>
</g>
<!-- src/styles/index.css -->
<g id="node32" class="node">
<title>src/styles/index.css</title>
<g id="a_node32"><a xlink:href="src/styles/index.css" xlink:title="index.css">
<path fill="#ffffcc" stroke="black" d="M797.96,-913.62C797.96,-913.62 755.79,-913.62 755.79,-913.62 752.58,-913.62 749.38,-910.42 749.38,-907.21 749.38,-907.21 749.38,-900.79 749.38,-900.79 749.38,-897.58 752.58,-894.38 755.79,-894.38 755.79,-894.38 797.96,-894.38 797.96,-894.38 801.17,-894.38 804.38,-897.58 804.38,-900.79 804.38,-900.79 804.38,-907.21 804.38,-907.21 804.38,-910.42 801.17,-913.62 797.96,-913.62"/>
<text text-anchor="start" x="757.38" y="-901.08" font-family="Helvetica,sans-Serif" font-size="9.00">index.css</text>
</a>
</g>
</g>
<!-- src/main.jsx&#45;&gt;src/styles/index.css -->
<g id="edge21" class="edge">
<title>src/main.jsx&#45;&gt;src/styles/index.css</title>
<path fill="none" stroke="#000000" stroke-width="2" stroke-opacity="0.200000" d="M70.42,-878.61C103.48,-885.13 161.9,-895 212.5,-895 212.5,-895 212.5,-895 506.75,-895 590.54,-895 688.93,-899.41 740.4,-902.06"/>
<polygon fill="#000000" fill-opacity="0.200000" stroke="#000000" stroke-width="2" stroke-opacity="0.200000" points="740.02,-904.14 746.12,-902.36 740.24,-899.95 740.02,-904.14"/>
</g>
</g>
</svg>
